<?xml version="1.0" encoding="UTF-8"?>
<svg xmlns="http://www.w3.org/2000/svg" xmlns:xlink="http://www.w3.org/1999/xlink" width="70pt" height="70pt" viewBox="0 0 70 70" version="1.1">
<g id="surface1">
<path style=" stroke:none;fill-rule:nonzero;fill:rgb(100%,59.607843%,6.666667%);fill-opacity:1;" d="M 61.765625 47.742188 C 61.480469 48.730469 61.089844 49.683594 60.59375 50.585938 L 63.589844 54.578125 L 58.953125 59.214844 L 54.960938 56.21875 C 54.058594 56.714844 53.105469 57.105469 52.117188 57.390625 L 51.40625 62.34375 L 44.84375 62.34375 L 44.132812 57.390625 C 43.144531 57.105469 42.191406 56.714844 41.289062 56.21875 L 37.296875 59.214844 L 32.660156 54.578125 L 35.65625 50.585938 C 35.160156 49.683594 34.769531 48.730469 34.484375 47.742188 L 29.53125 47.03125 L 29.53125 40.46875 L 34.484375 39.757812 C 34.769531 38.769531 35.160156 37.816406 35.65625 36.914062 L 32.660156 32.921875 L 37.296875 28.285156 L 39.703125 30.089844 L 41.289062 31.28125 C 41.734375 31.039062 42.1875 30.820312 42.65625 30.625 C 43.136719 30.425781 43.632812 30.253906 44.132812 30.109375 L 44.84375 25.15625 L 51.40625 25.15625 L 52.117188 30.109375 C 52.617188 30.253906 53.113281 30.425781 53.59375 30.625 C 54.0625 30.820312 54.515625 31.039062 54.960938 31.28125 L 57.96875 29.027344 L 58.953125 28.285156 L 63.589844 32.921875 L 60.59375 36.914062 C 61.089844 37.816406 61.480469 38.769531 61.765625 39.757812 L 66.71875 40.46875 L 66.71875 47.03125 Z M 61.765625 47.742188 "/>
<path style=" stroke:none;fill-rule:nonzero;fill:rgb(100%,83.137255%,13.333333%);fill-opacity:1;" d="M 53.59375 36.925781 C 52.335938 35.914062 50.820312 35.269531 49.21875 35.066406 C 48.855469 35.023438 48.492188 35 48.125 35 C 43.292969 35 39.375 38.917969 39.375 43.75 C 39.382812 46.695312 40.863281 49.4375 43.324219 51.054688 C 44.746094 51.996094 46.417969 52.5 48.125 52.5 C 48.863281 52.5 49.597656 52.40625 50.3125 52.226562 C 53.519531 51.398438 55.984375 48.828125 56.679688 45.589844 C 57.375 42.351562 56.179688 38.996094 53.59375 36.925781 Z M 53.59375 36.925781 "/>
<path style=" stroke:none;fill-rule:nonzero;fill:rgb(77.647059%,77.254902%,79.215686%);fill-opacity:1;" d="M 53.59375 30.625 C 53.113281 30.425781 52.617188 30.253906 52.117188 30.109375 L 51.40625 25.15625 L 49.21875 25.15625 L 49.21875 16.121094 C 46.980469 14.5625 45.738281 11.929688 45.964844 9.210938 C 46.1875 6.492188 47.847656 4.097656 50.3125 2.929688 L 50.3125 9.84375 L 53.59375 10.9375 L 56.875 9.84375 L 56.875 2.929688 C 59.339844 4.097656 61 6.492188 61.222656 9.210938 C 61.449219 11.929688 60.207031 14.5625 57.96875 16.121094 L 57.96875 29.027344 L 54.960938 31.28125 C 54.515625 31.039062 54.0625 30.820312 53.59375 30.625 Z M 53.59375 30.625 "/>
<path style=" stroke:none;fill-rule:nonzero;fill:rgb(100%,59.607843%,6.666667%);fill-opacity:1;" d="M 53.59375 30.625 L 53.59375 36.925781 C 52.335938 35.914062 50.820312 35.269531 49.21875 35.066406 L 49.21875 25.15625 L 51.40625 25.15625 L 52.117188 30.109375 C 52.617188 30.253906 53.113281 30.425781 53.59375 30.625 Z M 53.59375 30.625 "/>
<path style=" stroke:none;fill-rule:nonzero;fill:rgb(93.333333%,52.941176%,0%);fill-opacity:1;" d="M 38.28125 22.96875 L 36.09375 22.96875 C 35.710938 22.96875 35.332031 23.070312 35 23.265625 L 35 29.53125 C 35 29.792969 34.988281 30.054688 34.96875 30.308594 C 35.03125 30.351562 35.101562 30.386719 35.175781 30.417969 C 35.460938 30.554688 35.777344 30.625 36.09375 30.625 L 38.28125 30.625 C 38.804688 30.628906 39.3125 30.4375 39.703125 30.089844 C 40.191406 29.679688 40.46875 29.074219 40.46875 28.4375 L 40.46875 25.15625 C 40.464844 23.949219 39.488281 22.972656 38.28125 22.96875 Z M 38.28125 22.96875 "/>
<path style=" stroke:none;fill-rule:nonzero;fill:rgb(23.921569%,60.392157%,88.627451%);fill-opacity:1;" d="M 43.324219 51.054688 C 42.097656 48.976562 40.210938 47.363281 37.964844 46.472656 L 29.53125 43.09375 L 28.4375 42.65625 C 28.4375 45.074219 26.480469 47.03125 24.0625 47.03125 C 21.644531 47.03125 19.6875 45.074219 19.6875 42.65625 L 10.160156 46.472656 C 6.003906 48.128906 3.277344 52.148438 3.28125 56.625 L 3.28125 66.71875 L 44.84375 66.71875 L 44.84375 56.625 C 44.84375 54.664062 44.320312 52.742188 43.324219 51.054688 Z M 43.324219 51.054688 "/>
<path style=" stroke:none;fill-rule:nonzero;fill:rgb(100%,76.862745%,46.666667%);fill-opacity:1;" d="M 28.4375 39.550781 L 28.4375 42.65625 C 28.4375 45.074219 26.480469 47.03125 24.0625 47.03125 C 21.644531 47.03125 19.6875 45.074219 19.6875 42.65625 L 19.6875 39.550781 C 22.476562 40.773438 25.648438 40.773438 28.4375 39.550781 Z M 28.4375 39.550781 "/>
<path style=" stroke:none;fill-rule:nonzero;fill:rgb(93.333333%,52.941176%,0%);fill-opacity:1;" d="M 13.125 29.53125 C 13.125 29.792969 13.136719 30.054688 13.15625 30.308594 C 12.820312 30.519531 12.429688 30.628906 12.03125 30.625 L 9.84375 30.625 C 8.636719 30.621094 7.660156 29.644531 7.65625 28.4375 L 7.65625 25.15625 C 7.660156 23.949219 8.636719 22.972656 9.84375 22.96875 L 12.03125 22.96875 C 12.414062 22.96875 12.792969 23.070312 13.125 23.265625 Z M 13.125 29.53125 "/>
<path style=" stroke:none;fill-rule:nonzero;fill:rgb(100%,71.372549%,33.333333%);fill-opacity:1;" d="M 28.4375 39.550781 L 28.4375 41.738281 C 25.648438 42.960938 22.476562 42.960938 19.6875 41.738281 L 19.6875 39.550781 C 22.476562 40.773438 25.648438 40.773438 28.4375 39.550781 Z M 28.4375 39.550781 "/>
<path style=" stroke:none;fill-rule:nonzero;fill:rgb(34.117647%,33.72549%,36.078431%);fill-opacity:1;" d="M 35 23.265625 L 35 24.0625 L 33.90625 24.0625 C 32.527344 24.0625 31.234375 23.414062 30.40625 22.3125 L 28.4375 19.6875 L 24.761719 22.628906 C 23.601562 23.558594 22.160156 24.0625 20.671875 24.0625 L 13.125 24.0625 L 13.125 21.875 C 13.125 15.835938 18.023438 10.9375 24.0625 10.9375 C 30.101562 10.9375 35 15.835938 35 21.875 Z M 35 23.265625 "/>
<path style=" stroke:none;fill-rule:nonzero;fill:rgb(100%,76.862745%,46.666667%);fill-opacity:1;" d="M 33.90625 24.0625 C 32.527344 24.0625 31.234375 23.414062 30.40625 22.3125 L 28.4375 19.6875 L 24.761719 22.628906 C 23.601562 23.558594 22.160156 24.0625 20.671875 24.0625 L 13.125 24.0625 L 13.125 29.53125 C 13.125 29.792969 13.136719 30.054688 13.15625 30.308594 C 13.480469 34.859375 16.59375 38.730469 20.972656 40.019531 C 25.347656 41.308594 30.066406 39.746094 32.800781 36.09375 C 33.195312 35.585938 33.539062 35.042969 33.820312 34.464844 C 34.429688 33.273438 34.8125 31.976562 34.945312 30.648438 L 34.945312 30.636719 C 34.957031 30.527344 34.96875 30.417969 34.96875 30.308594 C 34.988281 30.054688 35 29.792969 35 29.53125 L 35 24.0625 Z M 33.90625 24.0625 "/>
<path style=" stroke:none;fill-rule:nonzero;fill:rgb(0%,0%,0%);fill-opacity:1;" d="M 17.5 27.34375 L 19.6875 27.34375 L 19.6875 29.53125 L 17.5 29.53125 Z M 17.5 27.34375 "/>
<path style=" stroke:none;fill-rule:nonzero;fill:rgb(0%,0%,0%);fill-opacity:1;" d="M 28.4375 27.34375 L 30.625 27.34375 L 30.625 29.53125 L 28.4375 29.53125 Z M 28.4375 27.34375 "/>
<path style=" stroke:none;fill-rule:nonzero;fill:rgb(0%,0%,0%);fill-opacity:1;" d="M 66.875 39.386719 L 62.601562 38.777344 C 62.398438 38.179688 62.15625 37.59375 61.882812 37.027344 L 64.46875 33.578125 C 64.792969 33.144531 64.75 32.535156 64.367188 32.148438 L 59.726562 27.507812 C 59.546875 27.332031 59.3125 27.222656 59.0625 27.199219 L 59.0625 16.667969 C 61.136719 15.011719 62.34375 12.5 62.34375 9.84375 C 62.363281 6.457031 60.410156 3.371094 57.34375 1.941406 C 57.003906 1.78125 56.605469 1.808594 56.289062 2.007812 C 55.972656 2.207031 55.78125 2.554688 55.78125 2.929688 L 55.78125 9.054688 L 53.59375 9.785156 L 51.40625 9.054688 L 51.40625 2.929688 C 51.40625 2.558594 51.210938 2.210938 50.894531 2.011719 C 50.578125 1.8125 50.183594 1.789062 49.84375 1.945312 C 46.777344 3.375 44.824219 6.460938 44.84375 9.84375 C 44.84375 12.5 46.050781 15.011719 48.125 16.667969 L 48.125 24.0625 L 44.84375 24.0625 C 44.300781 24.0625 43.839844 24.460938 43.761719 25 L 43.054688 29.953125 L 45.21875 30.265625 L 45.792969 26.25 L 50.457031 26.25 L 51.03125 30.265625 C 51.09375 30.6875 51.394531 31.039062 51.808594 31.160156 C 52.71875 31.421875 53.597656 31.785156 54.433594 32.238281 C 54.808594 32.445312 55.273438 32.410156 55.613281 32.152344 L 58.855469 29.726562 L 62.152344 33.023438 L 59.71875 36.261719 C 59.460938 36.605469 59.429688 37.070312 59.632812 37.445312 C 60.089844 38.277344 60.449219 39.160156 60.714844 40.070312 C 60.835938 40.484375 61.183594 40.785156 61.609375 40.847656 L 65.621094 41.421875 L 65.621094 46.085938 L 61.609375 46.660156 C 61.183594 46.71875 60.835938 47.023438 60.714844 47.4375 C 60.449219 48.347656 60.089844 49.226562 59.632812 50.0625 C 59.429688 50.4375 59.460938 50.898438 59.71875 51.242188 L 62.148438 54.480469 L 58.847656 57.78125 L 55.613281 55.34375 C 55.269531 55.085938 54.804688 55.054688 54.429688 55.257812 C 53.597656 55.714844 52.714844 56.074219 51.804688 56.339844 C 51.390625 56.460938 51.089844 56.808594 51.027344 57.234375 L 50.457031 61.25 L 45.9375 61.25 L 45.9375 56.625 C 45.9375 55.46875 45.769531 54.320312 45.445312 53.210938 C 49.726562 54.464844 54.320312 52.71875 56.6875 48.941406 C 59.054688 45.160156 58.625 40.265625 55.632812 36.960938 C 52.636719 33.652344 47.8125 32.738281 43.816406 34.722656 C 39.820312 36.707031 37.628906 41.101562 38.453125 45.488281 C 38.425781 45.476562 38.402344 45.460938 38.375 45.453125 L 29.53125 41.914062 L 29.53125 40.234375 C 30.992188 39.488281 32.289062 38.449219 33.335938 37.1875 L 36.09375 37.1875 C 37.90625 37.1875 39.375 35.71875 39.375 33.90625 L 39.375 31.515625 C 40.679688 31.054688 41.558594 29.824219 41.5625 28.4375 L 41.5625 25.15625 C 41.558594 23.769531 40.679688 22.539062 39.375 22.078125 L 39.375 20.78125 C 39.375 12.324219 32.519531 5.46875 24.0625 5.46875 C 15.605469 5.46875 8.75 12.324219 8.75 20.78125 L 8.75 22.078125 C 7.445312 22.539062 6.566406 23.769531 6.5625 25.15625 L 6.5625 28.4375 C 6.5625 30.25 8.03125 31.71875 9.84375 31.71875 L 12.03125 31.71875 C 12.101562 31.71875 12.167969 31.707031 12.238281 31.703125 C 12.917969 35.378906 15.265625 38.53125 18.59375 40.234375 L 18.59375 41.914062 L 9.75 45.453125 C 5.171875 47.265625 2.171875 51.699219 2.1875 56.625 L 2.1875 66.71875 C 2.1875 67.324219 2.675781 67.8125 3.28125 67.8125 L 44.84375 67.8125 C 45.449219 67.8125 45.9375 67.324219 45.9375 66.71875 L 45.9375 63.4375 L 51.40625 63.4375 C 51.949219 63.4375 52.410156 63.039062 52.488281 62.5 L 53.097656 58.226562 C 53.695312 58.023438 54.28125 57.78125 54.847656 57.507812 L 58.296875 60.09375 C 58.730469 60.417969 59.339844 60.375 59.726562 59.992188 L 64.367188 55.351562 C 64.753906 54.964844 64.796875 54.355469 64.46875 53.921875 L 61.882812 50.472656 C 62.160156 49.90625 62.398438 49.320312 62.601562 48.722656 L 66.875 48.113281 C 67.414062 48.035156 67.8125 47.574219 67.8125 47.03125 L 67.8125 40.46875 C 67.8125 39.925781 67.414062 39.464844 66.875 39.386719 Z M 54.84375 29.992188 C 54.792969 29.96875 54.734375 29.953125 54.683594 29.925781 L 54.683594 16.40625 L 52.5 16.40625 L 52.5 25.078125 L 52.488281 25 C 52.410156 24.460938 51.949219 24.0625 51.40625 24.0625 L 50.3125 24.0625 L 50.3125 16.121094 C 50.3125 15.765625 50.136719 15.429688 49.84375 15.222656 C 48.195312 14.078125 47.164062 12.238281 47.042969 10.234375 C 46.921875 8.234375 47.722656 6.285156 49.21875 4.945312 L 49.21875 9.84375 C 49.21875 10.316406 49.519531 10.734375 49.96875 10.882812 L 53.25 11.976562 C 53.472656 12.050781 53.714844 12.050781 53.9375 11.976562 L 57.21875 10.882812 C 57.667969 10.734375 57.96875 10.316406 57.96875 9.84375 L 57.96875 4.945312 C 59.464844 6.285156 60.269531 8.234375 60.148438 10.238281 C 60.023438 12.242188 58.992188 14.082031 57.34375 15.226562 C 57.050781 15.429688 56.875 15.765625 56.875 16.121094 L 56.875 28.472656 Z M 40.46875 43.75 C 40.445312 40.230469 42.804688 37.144531 46.203125 36.242188 C 49.605469 35.339844 53.183594 36.855469 54.90625 39.921875 C 56.625 42.992188 56.050781 46.835938 53.511719 49.265625 C 50.96875 51.699219 47.101562 52.101562 44.113281 50.246094 C 43.359375 49.035156 42.390625 47.972656 41.257812 47.101562 C 40.738281 46.0625 40.46875 44.914062 40.46875 43.75 Z M 36.09375 35 L 34.765625 35 C 35.300781 33.960938 35.675781 32.851562 35.886719 31.703125 C 35.957031 31.703125 36.023438 31.71875 36.09375 31.71875 L 37.1875 31.71875 L 37.1875 33.90625 C 37.1875 34.511719 36.699219 35 36.09375 35 Z M 33.90625 22.96875 C 32.875 22.964844 31.902344 22.480469 31.28125 21.65625 L 29.3125 19.03125 C 29.136719 18.792969 28.867188 18.640625 28.574219 18.601562 C 28.28125 18.566406 27.984375 18.648438 27.753906 18.832031 L 24.082031 21.765625 C 23.113281 22.539062 21.914062 22.964844 20.671875 22.96875 L 14.21875 22.96875 L 14.21875 21.875 C 14.21875 16.4375 18.625 12.03125 24.0625 12.03125 C 29.5 12.03125 33.90625 16.4375 33.90625 21.875 Z M 39.375 28.4375 C 39.375 29.042969 38.886719 29.53125 38.28125 29.53125 L 36.09375 29.53125 L 36.09375 24.0625 L 38.28125 24.0625 C 38.886719 24.0625 39.375 24.550781 39.375 25.15625 Z M 24.0625 7.65625 C 31.308594 7.664062 37.179688 13.535156 37.1875 20.78125 L 37.1875 21.875 L 36.09375 21.875 C 36.09375 15.230469 30.707031 9.84375 24.0625 9.84375 C 17.417969 9.84375 12.03125 15.230469 12.03125 21.875 L 10.9375 21.875 L 10.9375 20.78125 C 10.945312 13.535156 16.816406 7.664062 24.0625 7.65625 Z M 9.84375 29.53125 C 9.238281 29.53125 8.75 29.042969 8.75 28.4375 L 8.75 25.15625 C 8.75 24.550781 9.238281 24.0625 9.84375 24.0625 L 12.03125 24.0625 L 12.03125 29.53125 Z M 14.21875 29.53125 L 14.21875 25.15625 L 20.671875 25.15625 C 22.410156 25.152344 24.09375 24.5625 25.453125 23.476562 L 28.242188 21.246094 L 29.53125 22.96875 C 30.566406 24.34375 32.1875 25.152344 33.90625 25.15625 L 33.90625 29.53125 C 33.90625 31.480469 33.328125 33.382812 32.242188 35 L 24.0625 35 L 24.0625 37.1875 L 30.234375 37.1875 C 27.289062 39.570312 23.230469 40.046875 19.8125 38.414062 C 16.390625 36.777344 14.214844 33.324219 14.21875 29.53125 Z M 24.0625 41.5625 C 25.171875 41.558594 26.277344 41.402344 27.34375 41.097656 L 27.34375 42.65625 C 27.34375 44.46875 25.875 45.9375 24.0625 45.9375 C 22.25 45.9375 20.78125 44.46875 20.78125 42.65625 L 20.78125 41.097656 C 21.847656 41.402344 22.953125 41.558594 24.0625 41.5625 Z M 43.75 65.625 L 37.1875 65.625 L 37.1875 53.59375 L 35 53.59375 L 35 65.625 L 13.125 65.625 L 13.125 53.59375 L 10.9375 53.59375 L 10.9375 65.625 L 4.375 65.625 L 4.375 56.625 C 4.363281 52.59375 6.816406 48.96875 10.5625 47.484375 L 18.835938 44.175781 C 19.5 46.511719 21.632812 48.125 24.0625 48.125 C 26.492188 48.125 28.625 46.511719 29.289062 44.175781 L 37.5625 47.484375 C 41.308594 48.96875 43.761719 52.59375 43.75 56.625 Z M 43.75 65.625 "/>
<path style=" stroke:none;fill-rule:nonzero;fill:rgb(0%,0%,0%);fill-opacity:1;" d="M 47.03125 28.4375 L 49.21875 28.4375 L 49.21875 30.625 L 47.03125 30.625 Z M 47.03125 28.4375 "/>
<path style=" stroke:none;fill-rule:nonzero;fill:rgb(0%,0%,0%);fill-opacity:1;" d="M 47.03125 56.875 L 49.21875 56.875 L 49.21875 59.0625 L 47.03125 59.0625 Z M 47.03125 56.875 "/>
<path style=" stroke:none;fill-rule:nonzero;fill:rgb(0%,0%,0%);fill-opacity:1;" d="M 56.632812 53.804688 L 58.179688 52.257812 L 59.726562 53.804688 L 58.179688 55.351562 Z M 56.632812 53.804688 "/>
<path style=" stroke:none;fill-rule:nonzero;fill:rgb(0%,0%,0%);fill-opacity:1;" d="M 61.25 42.65625 L 63.4375 42.65625 L 63.4375 44.84375 L 61.25 44.84375 Z M 61.25 42.65625 "/>
<path style=" stroke:none;fill-rule:nonzero;fill:rgb(0%,0%,0%);fill-opacity:1;" d="M 56.632812 33.695312 L 58.179688 32.148438 L 59.726562 33.695312 L 58.179688 35.242188 Z M 56.632812 33.695312 "/>
</g>
</svg>
