<svg height="512" viewBox="0 0 64 64" width="512" xmlns="http://www.w3.org/2000/svg"><g id="Mechanic"><g fill="#bddbff"><path d="m61 28v2l-2.18.54a6.936 6.936 0 0 1 -.9 2.19l1.15 1.93-1.41 1.41-1.93-1.15a6.936 6.936 0 0 1 -2.19.9l-.54 2.18h-2l-.54-2.18a6.936 6.936 0 0 1 -2.19-.9l-1.93 1.15-1.41-1.41 1.15-1.93a6.936 6.936 0 0 1 -.9-2.19l-2.18-.54v-2l2.18-.54a6.936 6.936 0 0 1 .9-2.19l-1.15-1.93 1.41-1.41 1.93 1.15a6.936 6.936 0 0 1 2.19-.9l.54-2.18h2l.54 2.18a6.936 6.936 0 0 1 2.19.9l1.93-1.15 1.41 1.41-1.15 1.93a6.936 6.936 0 0 1 .9 2.19zm-6 1a3 3 0 1 0 -3 3 3 3 0 0 0 3-3z"/><path d="m51 11v2l-2.18.54a6.936 6.936 0 0 1 -.9 2.19l1.15 1.93-1.41 1.41-1.93-1.15a6.936 6.936 0 0 1 -2.19.9l-.54 2.18h-2l-.54-2.18a6.936 6.936 0 0 1 -2.19-.9l-1.93 1.15-1.41-1.41 1.15-1.93a6.936 6.936 0 0 1 -.9-2.19l-2.18-.54v-2l2.18-.54a6.936 6.936 0 0 1 .9-2.19l-1.15-1.93 1.41-1.41 1.93 1.15a6.936 6.936 0 0 1 2.19-.9l.54-2.18h2l.54 2.18a6.936 6.936 0 0 1 2.19.9l1.93-1.15 1.41 1.41-1.15 1.93a6.936 6.936 0 0 1 .9 2.19zm-6 1a3 3 0 1 0 -3 3 3 3 0 0 0 3-3z"/><path d="m34.21 21.47a1.012 1.012 0 0 1 .3 1.35l-3.39 5.65-2.92-1.76 1.8-2.71-2-1v4.01l-.68 1.02-9.17-5.29-2.5-1.45a6 6 0 0 1 5.35-3.29l2 2 2-2h2.18a5.958 5.958 0 0 1 3.33 1.01z"/><path d="m31 59v2h-6l-2-1v-3h6a2.006 2.006 0 0 1 2 2z"/><path d="m23 57h-5v-22h9.39l.61.35v21.65z"/><path d="m28 5v2l-1 2-3-2-2 2h-3l-1-1v-2l-1-3h9a2.006 2.006 0 0 1 2 2z"/><path d="m27.39 35h-9.39v-2l1-1.67.52-.87z"/><path d="m23 57v3l-2 1h-6v-2a2.006 2.006 0 0 1 2-2z"/><path d="m18 30.67-2.15-1.43-.85 1.27v.49a2.006 2.006 0 0 0 2 2h1l1-1.67z"/></g><path d="m38.988 31.3a5.921 5.921 0 0 0 -4.846-.494l-2.422-1.4 3.652-6.084a2.019 2.019 0 0 0 -.608-2.69l-3.7-2.456a6.923 6.923 0 0 0 -3.884-1.176h-1.18v-1.026a4.977 4.977 0 0 0 2-3.974v-2.764l.9-1.789a1 1 0 0 0 .1-.447v-2a3 3 0 0 0 -3-3h-9a1 1 0 0 0 -.949 1.316l.949 2.846v1.838a1 1 0 0 0 .293.707l.707.707v2.586a4.977 4.977 0 0 0 2 3.974v1.1a6.948 6.948 0 0 0 -4.354 2.43 5.906 5.906 0 0 0 -2.635-3.195 6.047 6.047 0 0 0 -6.568.355 1 1 0 0 0 .086 1.675l2.577 1.491-.065 1.11-.936.617-2.576-1.484a1 1 0 0 0 -1.494.763 5.989 5.989 0 0 0 7.822 6.353l2.143 1.238v2.573a3 3 0 0 0 3 3v22a3 3 0 0 0 -3 3v2a1 1 0 0 0 1 1h6a1 1 0 0 0 .447-.1l1.553-.782 1.553.777a1 1 0 0 0 .447.105h6a1 1 0 0 0 1-1v-2a3 3 0 0 0 -3-3v-18.918l1.141.658a5.96 5.96 0 0 0 5.847 4.76 6.084 6.084 0 0 0 3.569-1.159 1 1 0 0 0 -.086-1.675l-2.571-1.492.064-1.114.937-.617 2.575 1.483a1 1 0 0 0 1.493-.762 6.023 6.023 0 0 0 -2.981-5.864zm-11.18-2.21.687-1.03 1.252.752-.655 1.088a.752.752 0 0 1 -.484.35.76.76 0 0 1 -.8-1.163zm-4.808-14.09a3 3 0 0 1 -3-3v-2h2a1 1 0 0 0 .707-.293l1.42-1.42 1.873 1.248v2.465a3 3 0 0 1 -3 3zm3-11a1 1 0 0 1 1 1v1.764l-.388.776-2.057-1.372a1 1 0 0 0 -1.262.125l-1.707 1.707h-2.172l-.414-.414v-1.586a1 1 0 0 0 -.051-.316l-.562-1.684zm-3 13a5 5 0 0 0 1-.1v.687l-1 1-1-1v-.687a5 5 0 0 0 1 .1zm-2.387 2.027 1.68 1.68a1 1 0 0 0 1.414 0l1.707-1.707h1.766a4.939 4.939 0 0 1 2.776.843l3.7 2.463-2.879 4.794-1.171-.7 1.226-1.839a1 1 0 0 0 -.385-1.45l-2-1a1 1 0 0 0 -1.447.889v3.681l-9.944-5.733a4.951 4.951 0 0 1 3.557-1.921zm-1.613 14.25.875-1.458 3.781 2.181h-4.656zm.234-4.277-.552.919-1.442-.956.577-.861a.839.839 0 0 1 1.417.9zm-3.234 2v-.186l.127-.19 1.525 1.012-.218.364h-.434a1 1 0 0 1 -1-1zm4.764 29h-4.764v-1a1 1 0 0 1 1-1h5v1.382zm9.236-1v1h-4.764l-1.236-.618v-1.382h5a1 1 0 0 1 1 1zm-6-3v-16h-2v16h-3v-20h8v20zm14.359-21.6a1 1 0 0 0 -1.048.032l-1.871 1.23a1 1 0 0 0 -.448.776l-.13 2.231a1 1 0 0 0 .5.924l1.424.824a4 4 0 0 1 -2.8-.457 3.931 3.931 0 0 1 -1.946-2.972 1 1 0 0 0 -.492-.747l-10.648-6.141.045-.075a2.839 2.839 0 0 0 -4.794-3.041l-.181.271-3.27-1.888a1 1 0 0 0 -1.11-.214 3.944 3.944 0 0 1 -3.584-.19 3.988 3.988 0 0 1 -1.79-2.186l1.424.821a1 1 0 0 0 1.049-.033l1.87-1.23a1 1 0 0 0 .448-.776l.131-2.231a1 1 0 0 0 -.5-.924l-1.421-.824a3.975 3.975 0 0 1 4.75 3.468.98.98 0 0 0 .665.811l11.3 6.516a2.751 2.751 0 0 0 2.509 3.9 2.717 2.717 0 0 0 2.227-1.156l2.879 1.661a1 1 0 0 0 .89.055 3.978 3.978 0 0 1 5.343 2.392z" fill="#3d9ae2"/><path d="m42 16a4 4 0 1 0 -4-4 4 4 0 0 0 4 4zm0-6a2 2 0 1 1 -2 2 2 2 0 0 1 2-2z" fill="#3d9ae2"/><path d="m32.758 13.97 1.606.4a7.908 7.908 0 0 0 .56 1.35l-.853 1.422a1 1 0 0 0 .151 1.221l1.414 1.414a1 1 0 0 0 1.221.151l1.422-.853a7.908 7.908 0 0 0 1.35.56l.4 1.606a1 1 0 0 0 .971.759h2a1 1 0 0 0 .97-.758l.4-1.606a7.908 7.908 0 0 0 1.35-.56l1.422.853a1 1 0 0 0 1.221-.151l1.414-1.414a1 1 0 0 0 .151-1.221l-.853-1.422a7.908 7.908 0 0 0 .56-1.35l1.606-.4a1 1 0 0 0 .759-.971v-2a1 1 0 0 0 -.758-.97l-1.606-.4a7.908 7.908 0 0 0 -.56-1.35l.853-1.422a1 1 0 0 0 -.151-1.221l-1.414-1.415a1 1 0 0 0 -1.221-.151l-1.422.853a7.908 7.908 0 0 0 -1.35-.56l-.4-1.606a1 1 0 0 0 -.971-.758h-2a1 1 0 0 0 -.97.758l-.4 1.606a7.908 7.908 0 0 0 -1.35.56l-1.422-.853a1 1 0 0 0 -1.221.151l-1.415 1.414a1 1 0 0 0 -.151 1.221l.853 1.422a7.908 7.908 0 0 0 -.56 1.35l-1.606.4a1 1 0 0 0 -.758.971v2a1 1 0 0 0 .758.97zm1.242-2.189 1.419-.355a1 1 0 0 0 .733-.75 5.992 5.992 0 0 1 .778-1.876 1 1 0 0 0 .011-1.048l-.754-1.252.311-.31 1.257.753a1 1 0 0 0 1.045-.013 5.952 5.952 0 0 1 1.872-.778 1 1 0 0 0 .75-.733l.359-1.419h.438l.355 1.419a1 1 0 0 0 .75.733 5.952 5.952 0 0 1 1.876.778 1 1 0 0 0 1.049.011l1.251-.753.31.31-.753 1.256a1 1 0 0 0 .013 1.046 5.992 5.992 0 0 1 .778 1.874 1 1 0 0 0 .733.75l1.419.357v.438l-1.419.355a1 1 0 0 0 -.733.75 5.952 5.952 0 0 1 -.778 1.876 1 1 0 0 0 -.011 1.049l.753 1.257-.31.31-1.256-.753a1 1 0 0 0 -1.048.011 5.992 5.992 0 0 1 -1.874.778 1 1 0 0 0 -.75.733l-.355 1.415h-.438l-.355-1.419a1 1 0 0 0 -.75-.733 5.992 5.992 0 0 1 -1.876-.778 1 1 0 0 0 -1.048-.011l-1.256.753-.311-.31.754-1.257a1 1 0 0 0 -.009-1.045 5.952 5.952 0 0 1 -.778-1.872 1 1 0 0 0 -.733-.75l-1.419-.359z" fill="#3d9ae2"/><path d="m52 25a4 4 0 1 0 4 4 4 4 0 0 0 -4-4zm0 6a2 2 0 1 1 2-2 2 2 0 0 1 -2 2z" fill="#3d9ae2"/><path d="m61.242 27.03-1.606-.4a7.908 7.908 0 0 0 -.56-1.35l.853-1.422a1 1 0 0 0 -.151-1.221l-1.414-1.414a1 1 0 0 0 -1.221-.151l-1.422.853a7.908 7.908 0 0 0 -1.35-.56l-.4-1.606a1 1 0 0 0 -.971-.759h-2a1 1 0 0 0 -.97.758l-.4 1.606a7.908 7.908 0 0 0 -1.35.56l-1.422-.853a1 1 0 0 0 -1.221.151l-1.414 1.414a1 1 0 0 0 -.151 1.221l.853 1.422a7.908 7.908 0 0 0 -.56 1.35l-1.606.4a1 1 0 0 0 -.759.971v2a1 1 0 0 0 .758.97l1.606.4a7.908 7.908 0 0 0 .56 1.35l-.853 1.422a1 1 0 0 0 .151 1.221l1.414 1.414a1 1 0 0 0 1.221.151l1.422-.853a7.908 7.908 0 0 0 1.35.56l.4 1.606a1 1 0 0 0 .971.759h2a1 1 0 0 0 .97-.758l.4-1.606a7.908 7.908 0 0 0 1.35-.56l1.422.853a1 1 0 0 0 1.221-.151l1.414-1.414a1 1 0 0 0 .151-1.221l-.853-1.422a7.908 7.908 0 0 0 .56-1.35l1.606-.4a1 1 0 0 0 .759-.971v-2a1 1 0 0 0 -.758-.97zm-1.242 2.189-1.419.355a1 1 0 0 0 -.733.75 5.952 5.952 0 0 1 -.778 1.876 1 1 0 0 0 -.011 1.049l.753 1.257-.31.31-1.256-.753a1 1 0 0 0 -1.048.011 5.992 5.992 0 0 1 -1.874.778 1 1 0 0 0 -.75.733l-.355 1.415h-.438l-.355-1.419a1 1 0 0 0 -.75-.733 5.992 5.992 0 0 1 -1.876-.778 1 1 0 0 0 -1.048-.011l-1.256.753-.311-.31.754-1.257a1 1 0 0 0 -.009-1.045 5.952 5.952 0 0 1 -.778-1.872 1 1 0 0 0 -.733-.75l-1.419-.359v-.438l1.419-.355a1 1 0 0 0 .733-.75 5.992 5.992 0 0 1 .778-1.876 1 1 0 0 0 .011-1.048l-.754-1.252.311-.31 1.257.753a1 1 0 0 0 1.045-.013 5.952 5.952 0 0 1 1.872-.778 1 1 0 0 0 .75-.733l.359-1.419h.438l.355 1.419a1 1 0 0 0 .75.733 5.952 5.952 0 0 1 1.872.778 1 1 0 0 0 1.049.011l1.257-.753.31.31-.753 1.256a1 1 0 0 0 .011 1.046 5.992 5.992 0 0 1 .778 1.874 1 1 0 0 0 .733.75l1.419.357z" fill="#3d9ae2"/></g></svg>