<svg height="512" viewBox="0 0 64 64" width="512" xmlns="http://www.w3.org/2000/svg"><g id="Consult-Talk"><path d="m49 28a12.671 12.671 0 0 0 -1.35-.47l-.65-4.53h-2v-8.26a6.992 6.992 0 0 1 1-12.06v6.32l3 1 3-1v-6.32a6.992 6.992 0 0 1 1 12.06v11.8l-2.75 2.06a13.076 13.076 0 0 0 -1.25-.6z" fill="#c6c5ca"/><path d="m48 15h2v14h-2z" fill="#898890"/><path d="m56.47 43.65a12.589 12.589 0 0 1 -1.07 2.6l2.74 3.65-4.24 4.24-3.65-2.74a12.589 12.589 0 0 1 -2.6 1.07l-.65 4.53h-6l-.65-4.53a12.589 12.589 0 0 1 -2.6-1.07l-3.65 2.74-4.24-4.24 2.74-3.65a12.589 12.589 0 0 1 -1.07-2.6l-4.53-.65v-6l4.53-.65a12.589 12.589 0 0 1 1.07-2.6l-2.74-3.65 4.24-4.24 2.2 1.65 1.45 1.09a13.076 13.076 0 0 1 1.25-.6 12.671 12.671 0 0 1 1.35-.47l.65-4.53h6l.65 4.53a12.671 12.671 0 0 1 1.35.47 13.076 13.076 0 0 1 1.25.6l2.75-2.06.9-.68 4.24 4.24-2.74 3.65a12.589 12.589 0 0 1 1.07 2.6l4.53.65v6z" fill="#ff9811"/><path d="m30 39h2v2h-2z" fill="#cc7400"/><path d="m49 33.76a8 8 0 0 0 -4-1.7 8.262 8.262 0 0 0 -1-.06 8 8 0 0 0 -8 8 8.023 8.023 0 0 0 3.61 6.68 7.962 7.962 0 0 0 4.39 1.32 8.239 8.239 0 0 0 2-.25 8 8 0 0 0 3-13.99z" fill="#ffd422"/><path d="m49 28v5.76a8 8 0 0 0 -4-1.7v-9.06h2l.65 4.53a12.671 12.671 0 0 1 1.35.47z" fill="#ff9811"/><path d="m39.61 46.68a9.936 9.936 0 0 0 -4.9-4.19l-7.71-3.09-1-.4a4 4 0 0 1 -8 0l-8.71 3.49a9.982 9.982 0 0 0 -6.29 9.28v9.23h38v-9.23a9.991 9.991 0 0 0 -1.39-5.09z" fill="#3d9ae2"/><path d="m26 36.16v2.84a4 4 0 0 1 -8 0v-2.84a9.944 9.944 0 0 0 8 0z" fill="#ffc477"/><path d="m26 36.16v2a9.944 9.944 0 0 1 -8 0v-2a9.944 9.944 0 0 0 8 0z" fill="#ffb655"/><path d="m32 21.27v.73h-1a4 4 0 0 1 -3.2-1.6l-1.8-2.4-3.36 2.69a5.976 5.976 0 0 1 -3.74 1.31h-6.9v-2a10 10 0 0 1 20 0z" fill="#57565c"/><path d="m31 22a4 4 0 0 1 -3.2-1.6l-1.8-2.4-3.36 2.69a5.976 5.976 0 0 1 -3.74 1.31h-6.9v5c0 .24.01.48.03.71a9.991 9.991 0 0 0 17.96 5.29 8.459 8.459 0 0 0 .93-1.49 9.81 9.81 0 0 0 1.03-3.49v-.01c.01-.1.02-.2.02-.3.02-.23.03-.47.03-.71v-5z" fill="#ffc477"/><path d="m32 49h2v12h-2z" fill="#1e81ce"/><path d="m10 49h2v12h-2z" fill="#1e81ce"/><path d="m36 22h-2v-3a12 12 0 0 0 -24 0v3h-2v-3a14 14 0 0 1 28 0z" fill="#ff9811"/><path d="m33 34h-11v-2h11a1 1 0 0 0 1-1v-4h2v4a3 3 0 0 1 -3 3z" fill="#ee8700"/><path d="m16 25h2v2h-2z" fill="#ee8700"/><path d="m26 25h2v2h-2z" fill="#ee8700"/><g fill="#cc7400"><path d="m43 26h2v2h-2z"/><path d="m43 52h2v2h-2z"/><path d="m52.192 48.192h2v2h-2z" transform="matrix(.707 -.707 .707 .707 -19.205 52.021)"/><path d="m56 39h2v2h-2z"/><path d="m52.192 29.808h2v2h-2z" transform="matrix(.707 -.707 .707 .707 -6.205 46.636)"/></g><path d="m35 21h-2a2 2 0 0 0 -1 .27v5.73c0 .24-.01.48-.03.71a1.14 1.14 0 0 0 .19.1 1.988 1.988 0 0 0 .84.19h2a1.94 1.94 0 0 0 1.3-.49 1.972 1.972 0 0 0 .7-1.51v-3a2.006 2.006 0 0 0 -2-2z" fill="#ee8700"/><path d="m12 27c0 .24.01.48.03.71a1.9 1.9 0 0 1 -1.03.29h-2a2.006 2.006 0 0 1 -2-2v-3a2.006 2.006 0 0 1 2-2h2a2 2 0 0 1 1 .27z" fill="#ee8700"/></g></svg>