<svg xmlns="http://www.w3.org/2000/svg" xmlns:xlink="http://www.w3.org/1999/xlink" width="46.19" height="48.14" viewBox="0 0 46.19 48.14">
  <defs>
    <style>
      .a, .n {
        fill: none;
      }

      .b {
        fill: #0066b3;
      }

      .c {
        fill: #fff;
      }

      .d {
        clip-path: url(#a);
      }

      .e {
        clip-path: url(#b);
      }

      .f {
        fill: #ed1c24;
      }

      .g {
        clip-path: url(#c);
      }

      .h {
        clip-path: url(#d);
      }

      .i {
        fill: #be1e2d;
      }

      .j {
        clip-path: url(#e);
      }

      .k {
        clip-path: url(#f);
      }

      .l {
        clip-path: url(#g);
      }

      .m {
        fill: #808d9c;
      }

      .n {
        stroke: #fff;
        stroke-miterlimit: 10;
        stroke-width: 0.22px;
      }

      .o {
        fill: #fabc42;
      }
    </style>
    <clipPath id="a">
      <path class="a" d="M30.23,37.87c-1.36.32-4.38,1.62-5.39,1.42l-1.23,7.93c-.13.62.58.63,1.24.53,1.57-.24,4.32-2.12,5.76-1.31.22-1.72,1.32-8.47,1.32-8.47s-.18-.23-.79-.23a3.51,3.51,0,0,0-.91.13"/>
    </clipPath>
    <clipPath id="b">
      <path class="a" d="M29.48,42.35c-1.35.33-4.37,1.63-5.38,1.42l-.49,3.45c-.13.62.58.63,1.24.53,1.57-.24,4.32-2.12,5.76-1.31.22-1.72.59-3.92.59-3.92s-.21-.28-.89-.28a3.32,3.32,0,0,0-.83.11"/>
    </clipPath>
    <clipPath id="c">
      <path class="a" d="M29.72,40.5c-1.32.32-4.2,1.55-5.29,1.43L24,44.5c.12.42.59.52,1.25.47,1.57-.13,4.32-2.21,5.77-1.46l.45-2.9a1.78,1.78,0,0,0-.93-.22,3.48,3.48,0,0,0-.85.11"/>
    </clipPath>
    <clipPath id="d">
      <path class="a" d="M24,44.93l-.4,2.52c.09-.66,1-.68,1.59-.65s1.71,0,1.79-.47c.11-.64.16-1.44.16-1.44Z"/>
    </clipPath>
    <clipPath id="e">
      <path class="a" d="M26.94,46.36h0M22,38.4c-4.07,1.56-6,.4-7.25-.35l-1.34,8.12a9.94,9.94,0,0,0,7.83,1.2c2-.72,5.94-2.54,5.7-1,0-.08,1.23-8.13,1.21-8.15.06-.59-.54-.87-1.53-.87a13.87,13.87,0,0,0-4.62,1"/>
    </clipPath>
    <clipPath id="f">
      <path class="a" d="M26.94,46.36h0m-5.48-4.28c-4.06,1.56-6.06.49-7.33-.26l-.72,4.35a9.94,9.94,0,0,0,7.83,1.2c2-.72,5.94-2.54,5.7-1,0-.06.69-4.45.67-4.47.06-.59-.54-.86-1.53-.86a14.06,14.06,0,0,0-4.62,1"/>
    </clipPath>
    <clipPath id="g">
      <path class="a" d="M21.61,41.17c-3.93,1.51-6,.17-7.28-.6l-.46,2.82a8.36,8.36,0,0,0,7.76.74c1.85-.71,5.39-1.93,5.79-.83.13-.92.28-1.9.4-2.75-.19-.32-.71-.46-1.44-.46a14.77,14.77,0,0,0-4.77,1.08"/>
    </clipPath>
  </defs>
  <title>logo</title>
  <g>
    <path class="b" d="M46.18,22.43A23.09,23.09,0,1,0,23.76,46.18,23.09,23.09,0,0,0,46.18,22.43h0M23.59,40.28A17.19,17.19,0,1,1,40.28,22.6,17.2,17.2,0,0,1,23.59,40.28h0"/>
    <path class="c" d="M23.09,40.28h.5A17.19,17.19,0,0,0,23.1,5.91h-.5a17.19,17.19,0,0,0,.49,34.37m0-.41a16.77,16.77,0,0,1-.48-33.54h.49a16.77,16.77,0,0,1,.47,33.54h-.48"/>
    <path class="b" d="M23.09,40.7a17.61,17.61,0,0,1-.5-35.21h.51a17.6,17.6,0,0,1,.5,35.2h-.51m0-34h-.47a16.35,16.35,0,0,0,.46,32.7h.47a16.35,16.35,0,1,0-.45-32.7h0Z"/>
    <path class="c" d="M5.7,33.42a1.35,1.35,0,0,1,.42-.2,1.48,1.48,0,0,1,.42,0A1.08,1.08,0,0,1,7,33.4a1.76,1.76,0,0,1,.4.37l.28-.2h0l.06.06.09.12.08.12A.38.38,0,0,1,8,34H8l-.29.2a2.23,2.23,0,0,1,.24.49,1.09,1.09,0,0,1,0,.44,1,1,0,0,1-.15.4,1.17,1.17,0,0,1-.36.34,1,1,0,0,1-.4.19,1,1,0,0,1-.43,0A1.21,1.21,0,0,1,6.23,36a1.76,1.76,0,0,1-.4-.37l-.27.19h0l-.06-.06-.09-.12-.07-.12v-.09h0l.27-.19a2.27,2.27,0,0,1-.23-.5,1.09,1.09,0,0,1,0-.44.8.8,0,0,1,.14-.39,1.41,1.41,0,0,1,.35-.34m.37.49a.86.86,0,0,0-.2.18.56.56,0,0,0-.11.2.53.53,0,0,0,0,.25A.79.79,0,0,0,6,35l1-1a.71.71,0,0,0-.23-.19.68.68,0,0,0-.24-.08.45.45,0,0,0-.23,0,.65.65,0,0,0-.22.11m.13,1.4a.91.91,0,0,0,.24.2.63.63,0,0,0,.23.08h.23a.53.53,0,0,0,.21-.11.91.91,0,0,0,.21-.18.51.51,0,0,0,.11-.46,1,1,0,0,0-.11-.29Zm-.48-5H6l.65,1.37a.29.29,0,0,1,0,.13.15.15,0,0,1-.11.11l-2.39,1.2a.19.19,0,0,1-.15,0,.17.17,0,0,1-.1-.1l-.64-1.36h0l.06-.05.1-.05H3.6l.46,1,.66-.31-.38-.83H4.4l.1-.06h.22l.38.82.9-.6-.46-1H5.6l.1-.06M5.56,26.7h.05a.11.11,0,0,1,0,.08.24.24,0,0,1,0,.12v.21a0,0,0,0,1,0,.05h0l-.68.2.55,1.92.68-.2h0v.2a.29.29,0,0,1,0,.13v.13h0l-1,.3a.17.17,0,0,1-.1,0,.11.11,0,0,1,0-.08v-.13L5,29.68H4.09l-.54.06-.74.12a.22.22,0,0,1-.16,0,.16.16,0,0,1-.08-.1l-.42-1.48a.17.17,0,0,1,0-.14A.29.29,0,0,1,2.28,28l2.23-.63-.07-.25a.09.09,0,0,1,0-.1h.08ZM2.74,28.52l.19.68.62-.1L4,29.05h.82L5,29.1,4.68,28Zm1.62-4h.19L4.73,26a.29.29,0,0,1,0,.13.19.19,0,0,1-.14.07l-2.6.3a.19.19,0,0,1-.15,0,.14.14,0,0,1-.06-.12L1.6,24.91H2L2.09,26,3,25.83l-.1-.9h.36l.1.9.84-.1-.12-1.07h0a.11.11,0,0,1,.08,0h.1M2.53,21.57a1.17,1.17,0,0,1,.45.09.93.93,0,0,1,.32.24,1.07,1.07,0,0,1,.2.38,1.46,1.46,0,0,1,0,.51V23h1m0,.05a.14.14,0,0,1,0,.09v.15a.38.38,0,0,1,0,.15.14.14,0,0,1,0,.09v0h0l-2.7-.07a.35.35,0,0,1-.17-.06.3.3,0,0,1,0-.16v-.91a.89.89,0,0,1,0-.23,1.48,1.48,0,0,1,.1-.27,2.11,2.11,0,0,1,.19-.23.87.87,0,0,1,.27-.14.86.86,0,0,1,.32,0m0,.64a.47.47,0,0,0-.26.05.32.32,0,0,0-.15.13A.36.36,0,0,0,2,22.5V23H3v-.27a1,1,0,0,0,0-.25.36.36,0,0,0-.11-.16.34.34,0,0,0-.16-.1.41.41,0,0,0-.22,0m2.31-3.5h.27s0,.05,0,.09v.46H5l-.62.09-.2,1.12.55.28h0v.56a.22.22,0,0,1,0,.08H4.52l-.12-.06L1.93,20H1.88a.06.06,0,0,1,0-.06v-.7H2Zm-2.41,1h0l1.19.63.14-.84ZM6,15.91H6M6,16v.24a.33.33,0,0,1,0,.14v.08H6l-2.29-.81-.21.6.83.44c.23.13.43.26.59.37a1.91,1.91,0,0,1,.38.31,1.15,1.15,0,0,1,.2.29.76.76,0,0,1,0,.3,1.32,1.32,0,0,1-.08.33v.05H5l-.15-.06-.08-.05h0m0-.05a.33.33,0,0,0,0-.14.44.44,0,0,0-.06-.16,1.7,1.7,0,0,0-.19-.19,2.71,2.71,0,0,0-.35-.24,6,6,0,0,0-.55-.31c-.21-.12-.47-.25-.78-.4a.49.49,0,0,1-.14-.11.15.15,0,0,1,0-.13l.5-1.39a.15.15,0,0,1,.09-.1.19.19,0,0,1,.15,0Zm1.91-5.46A1.16,1.16,0,0,1,7,13a1.11,1.11,0,0,1,.18.34,1,1,0,0,1,0,.42,2,2,0,0,1-.24.59L6.53,15v.06H6.27L3.88,13.71h0v-.15L4,13.4v-.12l.06-.08h0l.89.5.21-.37a1.94,1.94,0,0,1,.31-.44,1,1,0,0,1,.32-.22.85.85,0,0,1,.73.07m-.26.58a.62.62,0,0,0-.19-.07H5.89a.42.42,0,0,0-.17.1,1.51,1.51,0,0,0-.18.26l-.17.31.83.47.18-.32a.91.91,0,0,0,.12-.31.34.34,0,0,0,0-.2.38.38,0,0,0-.09-.15.41.41,0,0,0-.13-.1M9.17,10.8h0V11l-.09.12-.1.11,0,.08H9l-1-.75-.7.87.95.76h0v.14l-.09.12-.1.11-.07.06H7.88L5.6,10.85h0v-.14l.09-.12.1-.11.07-.06H6l.86.69.7-.88L6.68,9.5h0V9.36l.09-.12a.52.52,0,0,1,.1-.11L7,9h.1Zm2.46-2.4a.5.5,0,0,1,.12.08v.06a.11.11,0,0,1,0,.08.8.8,0,0,1-.13.13l-.14.12-.09.05h-.11l-.55-.31-.84.75.25.56V10l-.06.07-.12.12-.13.1H9.68a.34.34,0,0,1-.06-.12L8.54,7.58V7.44l.08-.08a.86.86,0,0,1,.14-.13l.16-.15L9,7h.17ZM9.14,7.67h0l.53,1.24.64-.57ZM14,7h0a.17.17,0,0,1-.06.06l-.13.09-.12.07h-.15l-.59-1-.2.12a1.07,1.07,0,0,0-.16.14.35.35,0,0,0-.06.14.54.54,0,0,0,0,.18.81.81,0,0,0,0,.22l.15.67h0a.06.06,0,0,1,0,.06l-.08.07L12.47,8,12.32,8h-.14V7.88L12,7.46V7.24a.61.61,0,0,1,0-.19.43.43,0,0,1,0-.16.39.39,0,0,1,.08-.14h-.51a.72.72,0,0,1-.21-.12.91.91,0,0,1-.18-.21A1.06,1.06,0,0,1,11,6.09a1,1,0,0,1,0-.35,1.38,1.38,0,0,1,.2-.33A2.14,2.14,0,0,1,11.69,5l.63-.39a.15.15,0,0,1,.13,0,.23.23,0,0,1,.12.1ZM12.21,5.28l-.27.17a1,1,0,0,0-.23.18.26.26,0,0,0-.09.16.22.22,0,0,0,0,.16.33.33,0,0,0,.07.16.41.41,0,0,0,.12.14l.15.07h.18a1.23,1.23,0,0,0,.26-.12l.27-.2ZM19.65,5h-.52l-.37-1-1.09.27L18,5.42h-.52l-.69-2.75h.53l.27,1.07,1.08-.28-.26-1.07h0a.14.14,0,0,1,.09,0h.43ZM23,4.53a.69.69,0,0,1,.05.13.11.11,0,0,1,0,.08h-.61l-.25-.58L21,4.22l-.15.6v.06H20.3a0,0,0,0,1,0-.07.29.29,0,0,1,0-.13L21,2V1.94l.06-.05h.65a.06.06,0,0,1,.06,0,.09.09,0,0,1,0,.07ZM21.44,2.44h0l-.32,1.3L22,3.68ZM26,4.92h0L25.9,5h-.53l.23-2.42L25,2.39c-.08.35-.15.65-.22.91s-.14.48-.21.67a3.55,3.55,0,0,1-.21.44,1,1,0,0,1-.23.27.7.7,0,0,1-.28.12,1,1,0,0,1-.34,0h-.06V4.31h.05a.33.33,0,0,0,.14,0,.45.45,0,0,0,.14-.1A1,1,0,0,0,23.91,4c.06-.13.11-.26.16-.4s.1-.36.16-.6.13-.53.19-.86A.35.35,0,0,1,24.5,2a.13.13,0,0,1,.12,0l1.45,0a.11.11,0,0,1,.12.06.17.17,0,0,1,0,.14Zm3.87-.51A2.29,2.29,0,0,1,29.6,5a1.42,1.42,0,0,1-.41.4,1.2,1.2,0,0,1-.52.18A1.69,1.69,0,0,1,28,5.54a1.66,1.66,0,0,1-.56-.25,1.31,1.31,0,0,1-.35-.39A1.6,1.6,0,0,1,27,4.37a2.61,2.61,0,0,1,.11-.68,1.94,1.94,0,0,1,.26-.61,1.42,1.42,0,0,1,.41-.4,1.2,1.2,0,0,1,.52-.18,1.5,1.5,0,0,1,.63.07,1.66,1.66,0,0,1,.56.25,1.12,1.12,0,0,1,.34.38,1.21,1.21,0,0,1,.12.53,2,2,0,0,1-.09.68m-.63-.14a2,2,0,0,0,.08-.43,1,1,0,0,0,0-.35.59.59,0,0,0-.17-.27A.73.73,0,0,0,28.75,3a.81.81,0,0,0-.38,0,.85.85,0,0,0-.3.15.86.86,0,0,0-.21.29,2.39,2.39,0,0,0-.15.37,2.14,2.14,0,0,0-.08.44,1,1,0,0,0,0,.35.59.59,0,0,0,.17.27.89.89,0,0,0,.72.2.73.73,0,0,0,.3-.16A.94.94,0,0,0,29,4.63a2.5,2.5,0,0,0,.15-.38m3.59.14v.17h-.05l-.9-.42-1,2.2h-.14l-.14-.06-.13-.07h-.08l1.14-2.48a.2.2,0,0,1,.11-.11.17.17,0,0,1,.14,0l1.29.6V4.3a.64.64,0,0,1-.06.18m2.36,2.9a2.38,2.38,0,0,1-.44.51,1.39,1.39,0,0,1-.51.27,1.28,1.28,0,0,1-.55,0,1.76,1.76,0,0,1-.58-.25,2,2,0,0,1-.46-.41,1.13,1.13,0,0,1-.36-.5,1.23,1.23,0,0,1,0-.54,2.4,2.4,0,0,1,.31-.62,1.87,1.87,0,0,1,.43-.5,1.41,1.41,0,0,1,.5-.26,1.32,1.32,0,0,1,.56,0,1.78,1.78,0,0,1,.58.26,1.9,1.9,0,0,1,.45.4,1,1,0,0,1,.22.48,1.63,1.63,0,0,1,0,.54,2.31,2.31,0,0,1-.3.61M34.61,7a2.75,2.75,0,0,0,.2-.38,1.05,1.05,0,0,0,.08-.35A.65.65,0,0,0,34.81,6a1.15,1.15,0,0,0-.27-.27.78.78,0,0,0-.36-.13.63.63,0,0,0-.33.06.84.84,0,0,0-.29.2,1.89,1.89,0,0,0-.25.31,2.42,2.42,0,0,0-.21.39.85.85,0,0,0-.08.35.48.48,0,0,0,.08.31.87.87,0,0,0,.27.27.78.78,0,0,0,.36.13.74.74,0,0,0,.33,0,.86.86,0,0,0,.29-.21A2.36,2.36,0,0,0,34.61,7m2.47,2.92a1,1,0,0,1-.23.18.68.68,0,0,1-.24.08.57.57,0,0,1-.26,0l-.25-.07L35.85,10l-.26-.21L35,9.2a.13.13,0,0,1,0-.12.17.17,0,0,1,0-.14L36.8,7a.15.15,0,0,1,.13,0,.15.15,0,0,1,.13,0l.55.51a2.11,2.11,0,0,1,.31.36,1,1,0,0,1,.14.32.55.55,0,0,1,0,.31,1.14,1.14,0,0,1-.18.3l-.17.13a.51.51,0,0,1-.17.07h-.39a.65.65,0,0,1,.11.22,1,1,0,0,1,0,.24,1,1,0,0,1,0,.24.78.78,0,0,1-.16.24m-.48-.42a.36.36,0,0,0,.11-.16.49.49,0,0,0,0-.17A.44.44,0,0,0,36.66,9a.91.91,0,0,0-.18-.21l-.26-.24-.58.62.32.3a1.09,1.09,0,0,0,.17.13h.33l.14-.11m.77-1,.09-.14a.38.38,0,0,0,0-.15.38.38,0,0,0,0-.15.8.8,0,0,0-.15-.17l-.23-.21-.53.57.25.23a.57.57,0,0,0,.18.12h.29a.38.38,0,0,0,.13-.09m1.24,4.41-.09.11h-.07l-.08,0-.11-.14-.11-.15v-.14h0l.35-.53-.69-.89-.58.21h-.12L37,11.2l-.11-.13-.09-.14a.11.11,0,0,1,0-.08.06.06,0,0,1,0-.06h.13l2.67-.91h.13l.09.08.11.15.14.17.06.11a.11.11,0,0,1,0,.08v.07Zm.89-2.43h0l-1.27.45.52.67Zm.32,4.91H39.8l-.06-.07-.07-.13L39.52,15v-.15h0l1-.54-.1-.19a.59.59,0,0,0-.13-.18.37.37,0,0,0-.14-.07h-.39l-.69.11H39s0,0-.07-.08l-.08-.14a1,1,0,0,1-.07-.15.14.14,0,0,1,0-.09h.11l.62-.09h.41a.44.44,0,0,1,.16.06.57.57,0,0,1,.13.08,1.22,1.22,0,0,1,0-.27.69.69,0,0,1,0-.24.63.63,0,0,1,.13-.2,1.12,1.12,0,0,1,.22-.16,1,1,0,0,1,.39-.3.65.65,0,0,1,.34,0,1.06,1.06,0,0,1,.33.22,2.27,2.27,0,0,1,.33.48l.35.64a.17.17,0,0,1,0,.14.2.2,0,0,1-.11.11Zm1.86-1.7-.15-.28c-.05-.08-.1-.16-.16-.24a.34.34,0,0,0-.16-.1.22.22,0,0,0-.16,0,.49.49,0,0,0-.17.06l-.14.11a1.09,1.09,0,0,0-.08.15.28.28,0,0,0,0,.18,1.17,1.17,0,0,0,.1.26l.16.28Zm.12,7.12h-.22a.24.24,0,0,1-.09-.08l-.11-.16a1.63,1.63,0,0,1-.11-.23,2.29,2.29,0,0,1-.08-.28,1.82,1.82,0,0,1,0-.57,1.12,1.12,0,0,1,.2-.46,1.32,1.32,0,0,1,.42-.36,2,2,0,0,1,.63-.21,1.94,1.94,0,0,1,.68,0,1.55,1.55,0,0,1,.55.18,1.37,1.37,0,0,1,.38.38,1.44,1.44,0,0,1,.21.53v.24a.89.89,0,0,1,0,.23.54.54,0,0,1,0,.18v.18h-.38a.17.17,0,0,1,0-.1l.07-.15a.74.74,0,0,0,0-.21.71.71,0,0,0,0-.29.81.81,0,0,0-.13-.3.79.79,0,0,0-.25-.19A1,1,0,0,0,43,19a3.23,3.23,0,0,0-.44,0,1.73,1.73,0,0,0-.44.14.83.83,0,0,0-.28.21.74.74,0,0,0-.14.28.86.86,0,0,0,0,.32.63.63,0,0,0,.1.27.57.57,0,0,0,.12.18l.1.12a.24.24,0,0,1,.06.08h-.2m-.22,3.08h0a.14.14,0,0,1,0-.09v-.15a.38.38,0,0,1,0-.15v-.14H44v-.65a5.76,5.76,0,0,1-.93-.1l-.69-.12a2.51,2.51,0,0,1-.46-.16,1.21,1.21,0,0,1-.3-.2.61.61,0,0,1-.15-.26.92.92,0,0,1,0-.33v-.06h.45a0,0,0,0,1,0,0,.29.29,0,0,0,0,.13.37.37,0,0,0,.12.13,1.12,1.12,0,0,0,.25.11l.41.1.62.09.87.08a.34.34,0,0,1,.17.05.17.17,0,0,1,0,.12v1.48a.15.15,0,0,1,0,.13.27.27,0,0,1-.15.05Zm.49,2.41a3.42,3.42,0,0,1-.4-.26,1,1,0,0,1-.23-.24.54.54,0,0,1-.11-.26,1.61,1.61,0,0,1,0-.31v-.37h.45s0,0,0,.07v.18a.21.21,0,0,0,0,.11.14.14,0,0,0,0,.09.14.14,0,0,0,0,.09l.07.08.13.1,2.13-.72h.19a.17.17,0,0,1,0,.1v.35a.17.17,0,0,1,0,.1v.05h-.08l-1,.3a1.81,1.81,0,0,1-.31.09l-.3.08h0l.29.14.29.15.87.47h0v.58a.06.06,0,0,1-.06,0H44Zm-2,4.61h0v-.1a.38.38,0,0,1,0-.15.88.88,0,0,1,.05-.15v-.09h1.06a.6.6,0,0,0,.19-.06.69.69,0,0,0,.13-.11.89.89,0,0,0,.08-.17v-.12l-1.14-.38h0a.06.06,0,0,1,0-.06v-.45h0l1.13.38v-.12a.61.61,0,0,0,0-.19.25.25,0,0,0,0-.17.57.57,0,0,0-.11-.16l-.19-.16L41,28h0a.09.09,0,0,1,0-.07v-.25a.35.35,0,0,1,.06-.14v-.09h.14l.5.39.23.2a.46.46,0,0,1,.14.17,1.42,1.42,0,0,1,.08.18v.18h0a.43.43,0,0,1,.11-.12.38.38,0,0,1,.15-.09l.21-.05h1.05v.29l-.06.15v.08h-1a.49.49,0,0,0-.17.06.32.32,0,0,0-.12.11.56.56,0,0,0-.09.17v.11l1.06.35h0a0,0,0,0,1,0,.05v.37s0,.07,0,.08h0l-1.07-.36v.11a.61.61,0,0,0,0,.19.43.43,0,0,0,0,.16l.11.15a.65.65,0,0,0,.18.15l.54.38h0A.06.06,0,0,1,43,31v.47h-.12l-.1-.07L42.38,31l-.21-.18a1.15,1.15,0,0,1-.14-.17.77.77,0,0,1-.07-.16.49.49,0,0,1,0-.17h0a.93.93,0,0,1-.14.14.56.56,0,0,1-.17.09l-.22.05H40m-.69,2.91A1,1,0,0,1,39,33.3a.88.88,0,0,1-.15-.73,1.67,1.67,0,0,1,.21-.52l.39-.69a.15.15,0,0,1,.1-.09.15.15,0,0,1,.16,0L42,32.54a.23.23,0,0,1,.1.12.33.33,0,0,1,0,.14l-.84,1.48H41.1l-.1-.06h0v0h0l.63-1.1L41,32.7l-.25.43a1.75,1.75,0,0,1-.28.39,1,1,0,0,1-.3.2.91.91,0,0,1-.33,0,.89.89,0,0,1-.35-.11m.27-.56.18.06h.16a.38.38,0,0,0,.15-.09.69.69,0,0,0,.16-.22l.19-.34L39.83,32l-.19.35a.94.94,0,0,0-.1.23.54.54,0,0,0,0,.18.46.46,0,0,0,.07.16.53.53,0,0,0,.14.12M37,35.77l-.13-.06a.06.06,0,0,1,0-.06.14.14,0,0,1,0-.09l.11-.14.12-.14a.12.12,0,0,1,.07-.07h0l.6.22.71-.89L38,34.16h0V34l.1-.13.11-.12s0,0,.08,0h.07l.08.11L40,36.19v.13l-.06.1-.11.15-.14.17-.09.09h-.15Zm2.58.29h0l-.73-1.13-.53.67Z"/>
    <path class="b" d="M32.59,37.61l-.09-.11a1.73,1.73,0,0,0-1.38-.5,4.84,4.84,0,0,0-1.07.15c-.35.08-.78.22-1.3.39a1.06,1.06,0,0,0-.21-.31,2.52,2.52,0,0,0-2-.63,15.21,15.21,0,0,0-4.84,1.1,9.63,9.63,0,0,1-3.35.73,5.59,5.59,0,0,1-3.24-1l-.42-.25-.53-.31-.1.6L13,43.89l.4.17L13.62,43l.9-5.41h0l.42.25a6.66,6.66,0,0,0,2.34,1,5.77,5.77,0,0,0,1.1.1,10,10,0,0,0,3.5-.76A14.76,14.76,0,0,1,26.59,37a4.15,4.15,0,0,1,.79.07,1.52,1.52,0,0,1,.87.42.93.93,0,0,1,.23.57c.64-.22,1.23-.42,1.67-.53a4.22,4.22,0,0,1,1-.13h.46a1.64,1.64,0,0,1,.39.14c.13.07.38-.17.38-.17l-1.11,7.27.37-.15a4.06,4.06,0,0,1,.09-.56c.12-.74.22-1.29.22-1.29v-.31h0c.09-.51.16-1,.24-1.51.23-1.43.42-2.59.45-2.76h0v-.32Z"/>
    <path class="c" d="M23.09,40.28h.5A17.19,17.19,0,0,0,23.1,5.91h-.5a17.19,17.19,0,0,0,.49,34.37m0-.41a16.77,16.77,0,0,1-.48-33.54h.49a16.77,16.77,0,0,1,.47,33.54h-.48"/>
    <path class="c" d="M26.59,37a2.17,2.17,0,0,1,1.64.48.83.83,0,0,1,.23.58c.65-.22,1.25-.42,1.69-.53a3.76,3.76,0,0,1,1-.13c.74,0,.92.15,1,.2l.27-.19-1.5,9.5-.4-.23a1.61,1.61,0,0,0-.72-.16,8.85,8.85,0,0,0-2.81.83A10.71,10.71,0,0,1,25,48a2.81,2.81,0,0,1-.58,0c-.88,0-1-.47-1-.71l.05-.49-.7.27-1.3.49a7.57,7.57,0,0,1-2.41.36,10.3,10.3,0,0,1-5.71-1.6l-.15-.11,1.45-8.78.42.25a6.09,6.09,0,0,0,3.45,1.07A10,10,0,0,0,22,38a14.71,14.71,0,0,1,4.58-1"/>
    <g class="d">
      <polygon class="c" points="31.86 37.54 31.73 37.54 31.6 37.54 31.46 37.54 31.33 37.54 31.2 37.54 31.07 37.54 30.93 37.54 30.8 37.54 30.67 37.54 30.54 37.54 30.4 37.54 30.27 37.54 30.14 37.54 30.01 37.54 29.87 37.54 29.74 37.54 29.61 37.54 29.47 37.54 29.34 37.54 29.21 37.54 29.08 37.54 28.94 37.54 28.81 37.54 28.68 37.54 28.54 37.54 28.41 37.54 28.28 37.54 28.15 37.54 28.01 37.54 27.88 37.54 27.75 37.54 27.61 37.54 23.48 37.54 23.48 47.86 26.01 47.86 26.14 47.86 26.27 47.86 26.41 47.86 26.54 47.86 26.67 47.86 26.8 47.86 26.94 47.86 27.07 47.86 27.2 47.86 27.33 47.86 27.47 47.86 27.6 47.86 27.73 47.86 27.87 47.86 28 47.86 28.13 47.86 28.26 47.86 28.4 47.86 28.53 47.86 28.66 47.86 28.8 47.86 28.93 47.86 29.06 47.86 29.2 47.86 29.33 47.86 29.46 47.86 29.59 47.86 29.73 47.86 29.86 47.86 29.99 47.86 30.12 47.86 30.26 47.86 30.39 47.86 31.93 47.86 31.93 37.97 31.93 37.54 31.86 37.54"/>
    </g>
    <g class="e">
      <polygon class="f" points="31.19 42.02 31.17 42.02 31.15 42.02 31.13 42.02 31.11 42.02 31.1 42.02 31.08 42.02 31.06 42.02 31.04 42.02 31.03 42.02 31.01 42.02 30.99 42.02 30.97 42.02 30.95 42.02 30.93 42.02 30.91 42.02 30.9 42.02 30.88 42.02 30.86 42.02 30.84 42.02 30.83 42.02 30.81 42.02 30.79 42.02 30.77 42.02 30.75 42.02 30.73 42.02 30.72 42.02 30.7 42.02 30.68 42.02 30.66 42.02 30.64 42.02 30.63 42.02 30.61 42.02 30.59 42.02 30.57 42.02 30.55 42.02 30.54 42.02 30.52 42.02 30.5 42.02 30.48 42.02 30.46 42.02 30.44 42.02 30.43 42.02 30.41 42.02 30.39 42.02 30.37 42.02 30.36 42.02 30.34 42.02 30.32 42.02 30.3 42.02 30.28 42.02 30.26 42.02 30.24 42.02 30.23 42.02 30.21 42.02 30.19 42.02 30.17 42.02 30.15 42.02 30.14 42.02 30.12 42.02 30.1 42.02 30.08 42.02 30.06 42.02 30.05 42.02 30.03 42.02 30.01 42.02 29.99 42.02 29.97 42.02 29.95 42.02 29.93 42.02 29.92 42.02 29.9 42.02 29.88 42.02 29.86 42.02 29.85 42.02 29.83 42.02 29.81 42.02 29.79 42.02 29.77 42.02 29.75 42.02 29.74 42.02 29.72 42.02 29.7 42.02 29.68 42.02 29.66 42.02 29.65 42.02 29.63 42.02 29.61 42.02 29.59 42.02 29.57 42.02 29.55 42.02 29.54 42.02 29.52 42.02 29.5 42.02 29.48 42.02 29.46 42.02 29.45 42.02 29.43 42.02 29.41 42.02 29.39 42.02 29.38 42.02 29.36 42.02 29.34 42.02 29.32 42.02 29.3 42.02 29.28 42.02 29.27 42.02 29.25 42.02 29.23 42.02 29.21 42.02 29.19 42.02 29.17 42.02 29.16 42.02 29.14 42.02 29.12 42.02 29.1 42.02 29.08 42.02 29.06 42.02 29.05 42.02 29.03 42.02 28.98 42.02 28.94 42.02 28.9 42.02 28.85 42.02 28.81 42.02 28.76 42.02 28.72 42.02 28.68 42.02 28.63 42.02 28.59 42.02 28.54 42.02 28.5 42.02 28.45 42.02 28.41 42.02 28.36 42.02 28.32 42.02 28.27 42.02 28.23 42.02 28.18 42.02 28.14 42.02 28.1 42.02 28.05 42.02 28.01 42.02 27.96 42.02 27.92 42.02 27.88 42.02 27.83 42.02 27.79 42.02 27.74 42.02 27.7 42.02 27.65 42.02 27.61 42.02 27.56 42.02 27.52 42.02 27.47 42.02 27.43 42.02 27.39 42.02 27.34 42.02 27.3 42.02 27.25 42.02 27.21 42.02 27.16 42.02 27.12 42.02 27.07 42.02 27.03 42.02 26.99 42.02 26.94 42.02 26.9 42.02 26.85 42.02 26.81 42.02 26.76 42.02 26.72 42.02 26.68 42.02 26.63 42.02 26.59 42.02 26.54 42.02 26.5 42.02 26.45 42.02 26.41 42.02 26.36 42.02 26.32 42.02 26.27 42.02 26.23 42.02 26.19 42.02 26.14 42.02 26.1 42.02 26.05 42.02 26.01 42.02 25.97 42.02 25.92 42.02 25.87 42.02 25.83 42.02 25.79 42.02 25.74 42.02 25.7 42.02 25.65 42.02 25.61 42.02 25.56 42.02 25.52 42.02 25.48 42.02 25.43 42.02 25.39 42.02 25.34 42.02 25.3 42.02 25.25 42.02 25.21 42.02 25.16 42.02 25.12 42.02 25.07 42.02 25.03 42.02 24.99 42.02 24.94 42.02 24.9 42.02 24.85 42.02 24.81 42.02 24.77 42.02 24.72 42.02 24.68 42.02 24.63 42.02 24.59 42.02 24.54 42.02 24.5 42.02 24.45 42.02 24.41 42.02 24.36 42.02 23.48 42.02 23.48 47.68 23.48 47.68 23.48 47.85 23.5 47.85 23.55 47.85 23.59 47.85 23.63 47.85 23.68 47.85 23.72 47.85 23.77 47.85 23.81 47.85 23.86 47.85 23.9 47.85 23.95 47.85 23.99 47.85 24.04 47.85 24.08 47.85 24.12 47.85 24.16 47.85 24.21 47.85 24.26 47.85 24.3 47.85 24.34 47.85 24.39 47.85 24.43 47.85 24.48 47.85 24.52 47.85 24.57 47.85 24.61 47.85 24.65 47.85 24.7 47.85 24.74 47.85 24.79 47.85 24.83 47.85 24.88 47.85 24.92 47.85 24.97 47.85 25.01 47.85 25.06 47.85 25.1 47.85 25.14 47.85 25.19 47.85 25.23 47.85 25.28 47.85 25.32 47.85 25.37 47.85 25.41 47.85 25.45 47.85 25.5 47.85 25.54 47.85 25.59 47.85 25.63 47.85 25.68 47.85 25.72 47.85 25.77 47.85 25.81 47.85 25.86 47.85 25.9 47.85 25.94 47.85 25.99 47.85 26.03 47.85 26.08 47.85 26.12 47.85 26.17 47.85 26.21 47.85 26.26 47.85 26.3 47.85 26.34 47.85 26.39 47.85 26.43 47.85 26.48 47.85 26.52 47.85 26.57 47.85 26.61 47.85 26.65 47.85 26.7 47.85 26.74 47.85 26.79 47.85 26.83 47.85 26.88 47.85 26.92 47.85 26.97 47.85 27.01 47.85 27.06 47.85 27.1 47.85 27.14 47.85 27.19 47.85 27.23 47.85 27.28 47.85 27.32 47.85 27.36 47.85 27.41 47.85 27.45 47.85 27.5 47.85 27.54 47.85 27.59 47.85 27.63 47.85 27.68 47.85 27.72 47.85 27.77 47.85 27.81 47.85 27.85 47.85 27.9 47.85 27.94 47.85 27.99 47.85 28.03 47.85 28.08 47.85 28.12 47.85 28.14 47.85 28.16 47.85 28.18 47.85 28.19 47.85 28.21 47.85 28.23 47.85 28.25 47.85 28.27 47.85 28.29 47.85 28.3 47.85 28.32 47.85 28.34 47.85 28.36 47.85 28.37 47.85 28.39 47.85 28.41 47.85 28.43 47.85 28.45 47.85 28.47 47.85 28.48 47.85 28.5 47.85 28.52 47.85 28.54 47.85 28.55 47.85 28.57 47.85 28.59 47.85 28.61 47.85 28.63 47.85 28.65 47.85 28.66 47.85 28.68 47.85 28.7 47.85 28.72 47.85 28.74 47.85 28.76 47.85 28.77 47.85 28.79 47.85 28.81 47.85 28.83 47.85 28.85 47.85 28.86 47.85 28.88 47.85 28.9 47.85 28.92 47.85 28.94 47.85 28.95 47.85 28.97 47.85 28.99 47.85 29.01 47.85 29.03 47.85 29.04 47.85 29.06 47.85 29.08 47.85 29.1 47.85 29.12 47.85 29.14 47.85 29.16 47.85 29.17 47.85 29.19 47.85 29.21 47.85 29.23 47.85 29.25 47.85 29.26 47.85 29.28 47.85 29.3 47.85 29.32 47.85 29.34 47.85 29.36 47.85 29.37 47.85 29.39 47.85 29.41 47.85 29.43 47.85 29.45 47.85 29.46 47.85 29.48 47.85 29.5 47.85 29.52 47.85 29.54 47.85 29.55 47.85 29.57 47.85 29.59 47.85 29.61 47.85 29.63 47.85 29.64 47.85 29.66 47.85 29.68 47.85 29.7 47.85 29.72 47.85 29.74 47.85 29.75 47.85 29.77 47.85 29.79 47.85 29.81 47.85 29.83 47.85 29.84 47.85 29.86 47.85 29.88 47.85 29.9 47.85 29.92 47.85 29.93 47.85 29.95 47.85 29.97 47.85 29.99 47.85 30.01 47.85 30.02 47.85 30.04 47.85 30.06 47.85 30.08 47.85 30.1 47.85 30.12 47.85 30.14 47.85 30.15 47.85 30.17 47.85 30.19 47.85 30.21 47.85 30.23 47.85 30.24 47.85 30.26 47.85 30.28 47.85 30.3 47.85 30.32 47.85 30.34 47.85 30.35 47.85 30.37 47.85 30.39 47.85 31.2 47.85 31.2 42.67 31.2 42.56 31.2 42.44 31.2 42.32 31.2 42.2 31.2 42.09 31.2 42.02 31.19 42.02"/>
    </g>
    <g class="g">
      <polygon class="b" points="31.5 40.25 31.4 40.25 31.3 40.25 31.21 40.25 31.11 40.25 31.01 40.25 30.91 40.25 30.82 40.25 30.72 40.25 30.62 40.25 30.52 40.25 30.43 40.25 30.33 40.25 30.23 40.25 30.14 40.25 30.04 40.25 29.94 40.25 29.84 40.25 29.75 40.25 29.65 40.25 29.55 40.25 29.45 40.25 29.36 40.25 29.26 40.25 29.16 40.25 29.06 40.25 28.97 40.25 28.87 40.25 28.77 40.25 28.68 40.25 28.58 40.25 28.48 40.25 28.38 40.25 28.29 40.25 28.19 40.25 28.09 40.25 27.99 40.25 27.89 40.25 27.8 40.25 27.7 40.25 27.61 40.25 27.51 40.25 27.41 40.25 27.31 40.25 27.21 40.25 27.12 40.25 27.02 40.25 26.92 40.25 26.82 40.25 26.73 40.25 26.63 40.25 26.53 40.25 26.43 40.25 26.34 40.25 26.24 40.25 26.14 40.25 26.05 40.25 25.95 40.25 25.85 40.25 25.75 40.25 25.66 40.25 25.56 40.25 25.46 40.25 25.36 40.25 25.27 40.25 25.17 40.25 25.07 40.25 24.98 40.25 24.88 40.25 24.78 40.25 24.68 40.25 24.59 40.25 24.49 40.25 24.39 40.25 24.29 40.25 24.2 40.25 24.1 40.25 24.03 40.25 24.12 45.02 24.22 45.02 24.32 45.02 24.42 45.02 24.51 45.02 24.61 45.02 24.71 45.02 24.81 45.02 24.9 45.02 25 45.02 25.1 45.02 25.2 45.02 25.29 45.02 25.39 45.02 25.49 45.02 25.58 45.02 25.68 45.02 25.78 45.02 25.88 45.02 25.97 45.02 26.07 45.02 26.17 45.02 26.27 45.02 26.36 45.02 26.46 45.02 26.56 45.02 26.66 45.02 26.75 45.02 26.85 45.02 26.95 45.02 27.05 45.02 27.14 45.02 27.24 45.02 27.34 45.02 27.44 45.02 27.53 45.02 27.63 45.02 27.73 45.02 27.82 45.02 27.92 45.02 28.02 45.02 28.12 45.02 28.21 45.02 28.31 45.02 28.41 45.02 28.5 45.02 28.6 45.02 28.7 45.02 28.8 45.02 28.9 45.02 28.99 45.02 29.09 45.02 29.19 45.02 29.29 45.02 29.38 45.02 29.48 45.02 29.58 45.02 29.68 45.02 29.77 45.02 29.87 45.02 29.97 45.02 30.07 45.02 30.16 45.02 30.26 45.02 30.36 45.02 30.45 45.02 30.55 45.02 30.65 45.02 30.75 45.02 30.84 45.02 30.94 45.02 31.04 45.02 31.14 45.02 31.23 45.02 31.33 45.02 31.43 45.02 31.5 45.02 31.5 40.96 31.5 40.25 31.5 40.25"/>
    </g>
    <g class="h">
      <polygon class="i" points="27.08 44.89 27.04 44.89 27.01 44.89 26.97 44.89 26.93 44.89 26.89 44.89 26.86 44.89 26.82 44.89 26.78 44.89 26.74 44.89 26.7 44.89 26.67 44.89 26.63 44.89 26.59 44.89 26.55 44.89 26.52 44.89 26.48 44.89 26.44 44.89 26.4 44.89 26.36 44.89 26.33 44.89 26.29 44.89 26.25 44.89 26.21 44.89 26.18 44.89 26.14 44.89 26.1 44.89 26.06 44.89 26.02 44.89 25.98 44.89 25.95 44.89 25.91 44.89 25.87 44.89 25.83 44.89 25.8 44.89 25.76 44.89 25.72 44.89 25.68 44.89 25.65 44.89 25.61 44.89 25.57 44.89 25.53 44.89 25.5 44.89 25.46 44.89 25.42 44.89 25.38 44.89 25.34 44.89 25.3 44.89 25.27 44.89 25.23 44.89 25.19 44.89 25.15 44.89 25.11 44.89 25.08 44.89 25.04 44.89 25 44.89 24.96 44.89 24.93 44.89 24.89 44.89 24.85 44.89 24.81 44.89 24.77 44.89 24.74 44.89 24.7 44.89 24.66 44.89 24.62 44.89 24.59 44.89 24.55 44.89 24.51 44.89 24.47 44.89 24.43 44.89 24.4 44.89 24.36 44.89 24.32 44.89 24.28 44.89 24.25 44.89 24.21 44.89 24.17 44.89 24.13 44.89 24.09 44.89 24.06 44.89 24.02 44.89 23.98 44.89 23.94 44.89 23.91 44.89 23.87 44.89 23.83 44.89 23.79 44.89 23.75 44.89 23.72 44.89 23.68 44.89 23.64 44.89 23.6 44.89 23.58 44.89 23.62 47.45 23.66 47.45 23.69 47.45 23.73 47.45 23.77 47.45 23.81 47.45 23.84 47.45 23.88 47.45 23.92 47.45 23.96 47.45 24 47.45 24.03 47.45 24.07 47.45 24.11 47.45 24.15 47.45 24.18 47.45 24.22 47.45 24.26 47.45 24.3 47.45 24.34 47.45 24.37 47.45 24.41 47.45 24.45 47.45 24.49 47.45 24.52 47.45 24.56 47.45 24.6 47.45 24.64 47.45 24.68 47.45 24.71 47.45 24.75 47.45 24.79 47.45 24.83 47.45 24.86 47.45 24.9 47.45 24.94 47.45 24.98 47.45 25.02 47.45 25.05 47.45 25.09 47.45 25.13 47.45 25.17 47.45 25.2 47.45 25.24 47.45 25.28 47.45 25.32 47.45 25.36 47.45 25.39 47.45 25.43 47.45 25.47 47.45 25.51 47.45 25.55 47.45 25.58 47.45 25.62 47.45 25.66 47.45 25.7 47.45 25.73 47.45 25.77 47.45 25.81 47.45 25.85 47.45 25.89 47.45 25.92 47.45 25.96 47.45 26 47.45 26.04 47.45 26.07 47.45 26.11 47.45 26.15 47.45 26.19 47.45 26.23 47.45 26.26 47.45 26.3 47.45 26.34 47.45 26.38 47.45 26.42 47.45 26.45 47.45 26.49 47.45 26.53 47.45 26.57 47.45 26.61 47.45 26.64 47.45 26.68 47.45 26.72 47.45 26.75 47.45 26.79 47.45 26.83 47.45 26.87 47.45 26.91 47.45 26.94 47.45 26.98 47.45 27.02 47.45 27.06 47.45 27.1 47.45 27.12 47.45 27.12 44.89 27.08 44.89"/>
    </g>
    <g class="j">
      <polygon class="c" points="28.19 36.92 28.09 36.92 27.99 36.92 27.89 36.92 27.79 36.92 27.7 36.92 27.6 36.92 27.5 36.92 27.4 36.92 27.3 36.92 27.2 36.92 27.1 36.92 27 36.92 26.9 36.92 26.81 36.92 26.71 36.92 26.61 36.92 26.51 36.92 26.41 36.92 26.31 36.92 26.21 36.92 26.11 36.92 26.02 36.92 25.92 36.92 25.82 36.92 25.72 36.92 25.62 36.92 25.52 36.92 25.42 36.92 25.32 36.92 25.23 36.92 25.13 36.92 25.03 36.92 24.93 36.92 24.83 36.92 24.73 36.92 24.63 36.92 24.53 36.92 24.43 36.92 24.33 36.92 24.24 36.92 24.14 36.92 24.04 36.92 23.94 36.92 23.84 36.92 23.74 36.92 23.64 36.92 23.55 36.92 23.45 36.92 23.35 36.92 23.25 36.92 23.15 36.92 23.05 36.92 22.95 36.92 22.85 36.92 22.76 36.92 22.66 36.92 13.4 36.92 13.4 48.14 22.3 48.14 22.4 48.14 22.5 48.14 22.6 48.14 22.7 48.14 22.8 48.14 22.9 48.14 23 48.14 23.09 48.14 23.19 48.14 23.29 48.14 23.39 48.14 23.49 48.14 23.59 48.14 23.69 48.14 23.79 48.14 23.88 48.14 23.98 48.14 24.08 48.14 24.18 48.14 24.28 48.14 24.38 48.14 24.48 48.14 24.58 48.14 24.68 48.14 24.77 48.14 24.87 48.14 24.97 48.14 25.07 48.14 25.17 48.14 25.27 48.14 25.37 48.14 25.47 48.14 25.56 48.14 25.66 48.14 25.76 48.14 25.86 48.14 25.96 48.14 26.06 48.14 26.16 48.14 26.26 48.14 26.36 48.14 26.45 48.14 26.55 48.14 26.65 48.14 26.75 48.14 26.85 48.14 26.95 48.14 27.05 48.14 27.14 48.14 27.25 48.14 27.34 48.14 27.44 48.14 27.54 48.14 27.64 48.14 27.74 48.14 27.84 48.14 28.29 48.14 28.29 36.92 28.19 36.92"/>
    </g>
    <g class="k">
      <polygon class="f" points="27.65 40.6 27.54 40.6 27.43 40.6 27.31 40.6 27.2 40.6 27.09 40.6 26.98 40.6 26.86 40.6 26.75 40.6 26.64 40.6 26.52 40.6 26.41 40.6 26.3 40.6 26.19 40.6 26.07 40.6 25.96 40.6 25.85 40.6 25.74 40.6 25.62 40.6 25.51 40.6 25.4 40.6 25.29 40.6 25.17 40.6 25.06 40.6 24.95 40.6 24.84 40.6 24.72 40.6 24.61 40.6 24.5 40.6 24.39 40.6 24.27 40.6 24.16 40.6 24.05 40.6 23.94 40.6 23.82 40.6 23.71 40.6 23.6 40.6 23.48 40.6 23.37 40.6 23.26 40.6 23.15 40.6 23.04 40.6 22.92 40.6 22.81 40.6 22.7 40.6 22.59 40.6 22.47 40.6 22.36 40.6 22.25 40.6 22.13 40.6 22.02 40.6 21.91 40.6 21.8 40.6 21.68 40.6 21.57 40.6 21.46 40.6 21.35 40.6 21.23 40.6 21.12 40.6 21.01 40.6 20.9 40.6 20.78 40.6 20.67 40.6 20.56 40.6 20.45 40.6 20.34 40.6 20.22 40.6 20.11 40.6 20 40.6 19.88 40.6 19.77 40.6 19.66 40.6 19.55 40.6 19.43 40.6 19.32 40.6 19.21 40.6 19.1 40.6 18.98 40.6 18.87 40.6 18.76 40.6 18.65 40.6 18.54 40.6 18.42 40.6 18.31 40.6 18.2 40.6 18.08 40.6 17.97 40.6 17.86 40.6 17.75 40.6 17.63 40.6 17.52 40.6 17.41 40.6 17.3 40.6 17.18 40.6 17.07 40.6 16.96 40.6 16.84 40.6 16.73 40.6 16.62 40.6 16.51 40.6 16.39 40.6 16.28 40.6 16.17 40.6 16.06 40.6 15.95 40.6 15.83 40.6 15.72 40.6 15.61 40.6 15.49 40.6 15.38 40.6 15.27 40.6 15.16 40.6 15.04 40.6 14.93 40.6 14.82 40.6 14.71 40.6 14.59 40.6 14.48 40.6 14.37 40.6 14.26 40.6 14.14 40.6 14.03 40.6 13.92 40.6 13.81 40.6 13.69 40.6 13.58 40.6 13.4 40.6 13.4 46.19 13.4 46.19 13.4 48.14 13.46 48.14 13.57 48.14 13.68 48.14 13.79 48.14 13.91 48.14 14.02 48.14 14.13 48.14 14.24 48.14 14.36 48.14 14.47 48.14 14.58 48.14 14.69 48.14 14.81 48.14 14.92 48.14 15.03 48.14 15.14 48.14 15.26 48.14 15.37 48.14 15.48 48.14 15.6 48.14 15.71 48.14 15.82 48.14 15.93 48.14 16.05 48.14 16.16 48.14 16.27 48.14 16.38 48.14 16.49 48.14 16.61 48.14 16.72 48.14 16.83 48.14 16.95 48.14 17.06 48.14 17.17 48.14 17.28 48.14 17.4 48.14 17.51 48.14 17.62 48.14 17.73 48.14 17.85 48.14 17.96 48.14 18.07 48.14 18.18 48.14 18.3 48.14 18.41 48.14 18.52 48.14 18.63 48.14 18.75 48.14 18.86 48.14 18.97 48.14 19.08 48.14 19.2 48.14 19.31 48.14 19.42 48.14 19.54 48.14 19.65 48.14 19.76 48.14 19.87 48.14 19.98 48.14 20.1 48.14 20.21 48.14 20.32 48.14 20.44 48.14 20.55 48.14 20.66 48.14 20.77 48.14 20.88 48.14 21 48.14 21.11 48.14 21.22 48.14 21.34 48.14 21.45 48.14 21.56 48.14 21.67 48.14 21.79 48.14 21.9 48.14 22.01 48.14 22.12 48.14 22.24 48.14 22.35 48.14 22.46 48.14 22.57 48.14 22.69 48.14 22.8 48.14 22.91 48.14 23.02 48.14 23.14 48.14 23.25 48.14 23.36 48.14 23.47 48.14 23.59 48.14 23.7 48.14 23.81 48.14 23.92 48.14 24.04 48.14 24.15 48.14 24.26 48.14 24.37 48.14 24.49 48.14 24.6 48.14 24.71 48.14 24.83 48.14 24.94 48.14 25.05 48.14 25.16 48.14 25.28 48.14 25.39 48.14 25.5 48.14 25.61 48.14 25.73 48.14 25.84 48.14 25.95 48.14 26.06 48.14 26.18 48.14 26.29 48.14 26.4 48.14 26.51 48.14 26.63 48.14 26.74 48.14 26.85 48.14 26.96 48.14 27.08 48.14 27.19 48.14 27.3 48.14 27.41 48.14 27.42 48.14 27.75 48.14 27.75 40.6 27.65 40.6"/>
    </g>
    <g class="l">
      <path class="b" d="M13.86,45.24Zm0-5.53v5.53h14V39.71Z"/>
    </g>
    <path class="m" d="M36.11,19.59a2.41,2.41,0,0,0-1.4-.22,2,2,0,0,0,1.45-1.47,2.64,2.64,0,0,0-1.31,0,2,2,0,0,0,1-1.69,3.16,3.16,0,0,0-1.45.31A1.89,1.89,0,0,0,35.24,14c-.3.18-1.7,1.61-1.92,1.76a6.13,6.13,0,0,0,1.25-2c.22-.61.24-1.65-.5-2a23.77,23.77,0,0,1-2.29,3.73.62.62,0,0,0-.22-.17,3.7,3.7,0,0,1-1.11,1.56,1.11,1.11,0,0,0-.14-.29c-.47.71-1.69,1.67-2.09,2.25a.87.87,0,0,0,.07,1.23l0,0c.18.16.51.47.22.89a1.08,1.08,0,0,1-1.5.33,1.2,1.2,0,0,1-.29-.26.8.8,0,0,0,.66-.92.84.84,0,0,0-.21-.42.71.71,0,0,1-.93.3,1.51,1.51,0,0,1-.52-.34.64.64,0,0,0,.86-.28.68.68,0,0,0,.06-.4.68.68,0,0,1-.94-.08,1.27,1.27,0,0,1-.24-1.2,3.21,3.21,0,0,1,.9-1.47.22.22,0,0,0,.26.12l.37-.14a1,1,0,0,1,.83.11.58.58,0,0,1,.33.65c.57-.32.36-.83-.36-1a1.9,1.9,0,0,1,1,.52,1,1,0,0,0,.9,0c.45-.21.55-.73.42-.85a.47.47,0,0,1-.44.38,2,2,0,0,1-1-.24,2.62,2.62,0,0,0-.92-.16,1.26,1.26,0,0,1,1.56.18.78.78,0,0,0,.32-.54c.13-.74-.44-1.12-1.07-1.12a.2.2,0,0,0-.16-.23.17.17,0,0,0-.12,0,.23.23,0,0,0-.06-.16h0a2.54,2.54,0,0,0,1.56-.58c.56-.59-.34-1.36,0-2a2.84,2.84,0,0,0,1,.38,2.37,2.37,0,0,1,.09.36c.14.67-.53.78-.36,1.5.07.32.32.42.4.8a.59.59,0,0,1-.2.51.62.62,0,0,0,.7-.53.58.58,0,0,0-.05-.34c-.07-.17-.26-.34-.25-.54.28.38.52.35,1,.22.19-.06.21.21.09.42a.67.67,0,0,0,.37-.58.36.36,0,0,0-.32-.39.32.32,0,0,0-.14,0c-.13,0-.39.19-.4-.06,0-.43.62-.4.49-1.09-.08-.36-.46-.53-1-.62A1.47,1.47,0,0,1,31,11c-.35-.55-.68-.69-.88-.58s-.36.24-.57.34a1.18,1.18,0,0,0-.42.24c-.26.33,0,.83.12,1.13a1.43,1.43,0,0,1,.22.9c-.12.36-.72.59-1.1.67h-.06v-.14a5,5,0,0,0,.29-.62c.24-.65-.13-.93-.68-1a.33.33,0,0,0-.24,0h0V12h-.08v-.13h0a.28.28,0,0,0,0-.38h.09a.43.43,0,0,1-.09-.1l-.05-.06h.07l.1.09h0v-.61h0l-.1.09H27.5l.05-.06a.43.43,0,0,1,.09-.1H27l.08.1L27,11h-.06l-.11-.09h0v.61h0l.11-.09H27V11.3l-.08.1H27a.28.28,0,0,0,0,.38h0V12h-.1v-.09h0a.31.31,0,0,0-.23,0c-.55.12-.92.4-.68,1a4.91,4.91,0,0,0,.28.62v.09a4.74,4.74,0,0,1-1.81-1.15l-.08-.09V12a7,7,0,0,0,.51-1.07c.35-.94-.17-1.34-1-1.52a.36.36,0,0,0-.32,0v.16H23.4V9.33h-.1a.38.38,0,0,0,.17-.51.47.47,0,0,0-.11-.13h.14c-.07-.07-.22-.23-.23-.32a.9.9,0,0,1,.32.23V7.83a1.24,1.24,0,0,1-.32.23c0-.09.16-.25.23-.32h-.8a1.24,1.24,0,0,1,.23.32,1.5,1.5,0,0,1-.33-.23V8.6a.94.94,0,0,1,.33-.23,1.08,1.08,0,0,1-.24.32h.14a.37.37,0,0,0-.14.3.42.42,0,0,0,.2.35h-.1v.18h-.17V9.36a.38.38,0,0,0-.33,0c-.82.18-1.34.58-1,1.52A5.94,5.94,0,0,0,21.8,12v.41l-.07.08a4.7,4.7,0,0,1-1.82,1.15v-.09a3.81,3.81,0,0,0,.28-.62c.25-.65-.12-.93-.67-1a.33.33,0,0,0-.24,0h0V12H19.2v-.13h0a.3.3,0,0,0,0-.38h.08l-.09-.1v-.06h.06l.1.09h0v-.61h0l-.1.09h-.06v-.06l.09-.1h-.61l.09.1v.06H18.7l-.1-.09h0v.61h0l.1-.09h.06v.06l-.09.1h.08a.3.3,0,0,0,0,.38h0V12H18.7v-.09h0a.31.31,0,0,0-.23,0c-.56.12-.92.4-.68,1a4.91,4.91,0,0,0,.28.62v.14H18c-.37-.08-1-.31-1.09-.67a1.5,1.5,0,0,1,.21-.9c.15-.3.38-.8.13-1.13a1.22,1.22,0,0,0-.43-.24c-.2-.1-.32-.2-.56-.34s-.54,0-.88.58a1.47,1.47,0,0,1-.29.32c-.59.09-1,.26-1.05.62-.14.69.52.66.49,1.09,0,.25-.28.09-.41.06a.36.36,0,0,0-.44.26.49.49,0,0,0,0,.12A.68.68,0,0,0,14,14c-.12-.21-.09-.48.1-.42.43.13.67.16.94-.22,0,.2-.18.37-.25.54a.63.63,0,0,0,.34.83.69.69,0,0,0,.32,0,.59.59,0,0,1-.2-.51c.07-.38.32-.48.4-.8.16-.72-.5-.83-.37-1.5a2.42,2.42,0,0,1,.1-.36,2.84,2.84,0,0,0,1-.38c.32.6-.57,1.37,0,2a2.52,2.52,0,0,0,1.55.58H18a.17.17,0,0,0-.07.16.2.2,0,0,0-.27.1.25.25,0,0,0,0,.12c-.63,0-1.2.38-1.07,1.12a.78.78,0,0,0,.32.54,1.26,1.26,0,0,1,1.56-.18,2.57,2.57,0,0,0-.91.16,2,2,0,0,1-1,.24.5.5,0,0,1-.44-.38c-.12.12,0,.64.42.85a1,1,0,0,0,.91-.05,1.77,1.77,0,0,1,1-.52c-.73.21-.93.72-.37,1a.62.62,0,0,1,.33-.65,1.07,1.07,0,0,1,.84-.11,2.67,2.67,0,0,0,.36.14.23.23,0,0,0,.27-.12,3.39,3.39,0,0,1,.9,1.47,1.27,1.27,0,0,1-.24,1.2.69.69,0,0,1-1,.08.65.65,0,0,0,.55.74.63.63,0,0,0,.38-.06A1.55,1.55,0,0,1,20,20a.7.7,0,0,1-.92-.3.8.8,0,0,0,0,1.13.77.77,0,0,0,.41.21,1.09,1.09,0,0,1-1.5.35,1,1,0,0,1-.37-.38.65.65,0,0,1,.22-.89A.88.88,0,0,0,18,18.9l0,0c-.4-.58-1.62-1.54-2.09-2.25a1.59,1.59,0,0,0-.15.29,3.59,3.59,0,0,1-1.1-1.56c-.1,0-.15.11-.22.17a23,23,0,0,1-2.29-3.73c-.75.36-.73,1.4-.51,2a6,6,0,0,0,1.26,2c-.23-.15-1.62-1.58-1.93-1.76a1.89,1.89,0,0,0,.79,2.55l0,0a3.12,3.12,0,0,0-1.44-.31,2,2,0,0,0,1,1.69A2.64,2.64,0,0,0,10,18a2,2,0,0,0,1.45,1.47,2.39,2.39,0,0,0-1.39.22,1.7,1.7,0,0,0,1.53,1.2,1.87,1.87,0,0,0-1.26.61,1.57,1.57,0,0,0,1.37.66,1.44,1.44,0,0,0-.83.81c.37.3.84.49,1.93.1-1.24.52-1,.77-1.19,1.3a1.22,1.22,0,0,0,1,.17,7.57,7.57,0,0,0,1.35-1c-.16.16-.85.67-1.16,1s-.1.66-.1,1h.18v.06a.89.89,0,0,0-1.12.49,1.31,1.31,0,0,0-.09.28.56.56,0,0,0-.6.32v.05h0v.19h0V27h0v.05h0V28h0v.05h0v.05h0V29h.08v.39h0v.05h0v0h.92v0h1.73l.32.15h.23l.43-.92h.07l.21.09a.11.11,0,0,0,0,.08l1.33.62v.05h0v.12h0a.25.25,0,0,0,.08.18.35.35,0,0,0,.28.06.32.32,0,0,0,.16-.28v-.06h0a.28.28,0,0,1,0,.18.28.28,0,0,0,0,.22h0a.19.19,0,0,0,.14.09h.17s.1,0,.1-.09h0a.38.38,0,0,0,0,.15h.06a.21.21,0,0,0,.11,0H18a.1.1,0,0,0,.09-.06h0a.22.22,0,0,0,0-.16v-.05L20.57,31a5.56,5.56,0,0,0-.83.53,1.38,1.38,0,0,1-.67.36.26.26,0,0,1-.26-.15.5.5,0,0,1,.11-.52.41.41,0,0,0-.22,0,.84.84,0,0,0-.56.75.74.74,0,0,0,0,.21,1.33,1.33,0,0,0-.48.33c-1,1-.35,1.67-.35,1.67a1.66,1.66,0,0,1,.58-1v.35a1,1,0,0,0,.25.49l.09.13-1.33.69s-.13.08-.07.19h0c.05.12.19.06.19.06L18.31,35v.09h.11a.37.37,0,0,0,.27-.24l.29-.14a1.09,1.09,0,0,0,.19.33,1,1,0,0,0,.74.34H20a.89.89,0,0,1-.31.3l-.29.12a2.87,2.87,0,0,1-.57.11,1.42,1.42,0,0,1-.86-.16s.18.91,1.57.71a1.65,1.65,0,0,0,1.31-1.14,1.12,1.12,0,0,0,1,.49,1.22,1.22,0,0,0,.67-.2,1.66,1.66,0,0,0,.65.76h0a1.64,1.64,0,0,0,.64-.76,1.22,1.22,0,0,0,.67.2,1.14,1.14,0,0,0,.88-.37A1.52,1.52,0,0,0,25.6,35h0a1.1,1.1,0,0,0,.71.29A1,1,0,0,0,27,35a.93.93,0,0,0,.2-.41l.23.1a.5.5,0,0,0,.13.25.69.69,0,0,0,.3.14.54.54,0,0,1-.05-.21l1.77.82h0a.49.49,0,0,0,.24,0H30v-.07h0v-.07h0l-.11-.06h0l-.41-.19.2-.41.89.42,1-2.11v-.1L31.28,33h0a1.73,1.73,0,0,0,.86-2c-.27-.72-.69-.72-.69-.72a.81.81,0,0,1-.57-.06c0,.21.4.57.4.57s.15.1.09.13a.25.25,0,0,1-.17,0,2,2,0,0,1-.45-.24s-.09.09.22.35a1.34,1.34,0,0,1,.38.47.63.63,0,0,1-.28.7c-1.08.53-2.21-.6-2.56-1a.06.06,0,0,0,.06,0,.38.38,0,0,0,0-.15h0c0,.08.06.09.1.1h.11a.21.21,0,0,0,.15-.09h0a.28.28,0,0,0,0-.22.19.19,0,0,1,0-.18v-.09h0v.13a.32.32,0,0,0,.16.28.35.35,0,0,0,.28-.06.23.23,0,0,0,.08-.18h0a.13.13,0,0,0,0-.12h0a.06.06,0,0,0,0-.06.53.53,0,0,0,.19-.33h.14l.11-.06h0a.15.15,0,0,0,.16-.09l2.51-1.25v.06l.76-.39v-.05l.3-.15a1.91,1.91,0,0,1-.23-.45l-.3.16L33,27l-.76.37v.07l-2.42,1.24h0a0,0,0,0,1,0-.05v-.08h0c0-.12-.12-.14-.21-.16h-.06l-.11-.07h-.17v.06c0,.06,0,0-.05.05h0a.87.87,0,0,0-.12-.47,1.2,1.2,0,0,0-1-.67,1.39,1.39,0,0,1,.54-.51.65.65,0,0,1,.73.19,1.32,1.32,0,0,1,.15.58c0,.41.17.39.17.39a1.63,1.63,0,0,1,.05-.49.32.32,0,0,1,.09-.16s.06.15.06.15.06.53.22.66a.84.84,0,0,1,.3-.5s.2-.27-.07-.79a.44.44,0,0,1,.19.07c.15-.28.48-.37.43-.72a1.89,1.89,0,0,0,1,.3H32a.47.47,0,0,0,.1.1.24.24,0,0,0-.14.22c0,.15.19.25.19.25s-.12.09-.07.2a.24.24,0,0,0,.19.12s-.08.15,0,.24l.63-.32a.88.88,0,0,1-.48-.43.51.51,0,0,1,.08-.49c.12-.17.36-.16.48-.35a.61.61,0,0,0,.14-.29,1.71,1.71,0,0,1,.32,0c0-.29.24-.63-.1-1s-1-.8-1.17-1a7.41,7.41,0,0,0,1.37.91,1.22,1.22,0,0,0,1-.17c-.19-.53,0-.78-1.19-1.3,1.08.39,1.55.2,1.93-.1a1.52,1.52,0,0,0-.84-.81,1.57,1.57,0,0,0,1.37-.66A1.83,1.83,0,0,0,34.6,21a1.7,1.7,0,0,0,1.53-1.2m-7.57,10.5a.17.17,0,0,0,0,.1h0a.29.29,0,0,1,0-.13Zm0-.05h0v-.06a.14.14,0,0,0,0,.09m-13-1.73h0Zm7-15.57h1a4.67,4.67,0,0,0,2.09,1,4.18,4.18,0,0,1-1.45-.16c0,.3.68.66,1.11.75a1.8,1.8,0,0,1-1-.13,1.12,1.12,0,0,0,.61.48,1.82,1.82,0,0,1-1.53.54.75.75,0,0,0,.67.27A6.05,6.05,0,0,0,23,18.51a5.88,5.88,0,0,0-1-2.81.75.75,0,0,0,.67-.27,1.8,1.8,0,0,1-1.52-.54,1.26,1.26,0,0,0,.61-.48,1.8,1.8,0,0,1-1,.13c.43-.09,1.09-.45,1.11-.75a4.18,4.18,0,0,1-1.45.16,4.64,4.64,0,0,0,2.08-1M13.14,29H13a.42.42,0,0,1-.34.39h0v-.05h0L12.51,29h0a.43.43,0,0,1,0-.16v-.09h0a.44.44,0,0,1,.11-.24.86.86,0,0,1-.13-.14h0l-.1-.16h0a.89.89,0,0,1-.12-.38v-.24h0a.81.81,0,0,1,0-.22h0a1.17,1.17,0,0,1,1-.83h.25a.42.42,0,0,1,.35-.29H14a.43.43,0,0,1,.13.26.36.36,0,0,1-.08.3,1.19,1.19,0,0,1-.69,2m1-3.8a.49.49,0,0,0-.17,0c.42-.5,1.08-1.3,1.2-1.4,0,.11-.63.85-1,1.43M30,24.14l.08.12h0v-.12m.87-.58a7,7,0,0,1,.52.57l-.14-.05c-.2-.26-.35-.47-.38-.52m-1.5,5.17h0v.21l-.42.22A.45.45,0,0,1,29,29h.07a.32.32,0,0,0,.24-.13h0a.21.21,0,0,0,0-.11m-5.54,4.79a2.93,2.93,0,0,0,.21-.39h0a4.24,4.24,0,0,1,.15,1,1.21,1.21,0,0,1-.15.64.46.46,0,0,1-.17.17,1.61,1.61,0,0,0,0-.31,6.6,6.6,0,0,0-.1-1.17M22.23,35a.66.66,0,0,1-.27-.42h.25V35M16.73,28.7h0M20,33.78v-.06h0Zm.78-3.14h-.4a.86.86,0,0,0,.32-.05.7.7,0,0,0,.4-.58c-.23.11-.79.26-.86-.32s.38-.92,1.06-.75h.06c.48.19,1.07,1.13.47,1.54a2.11,2.11,0,0,0-.63.52h-.26m.67.32H22l-.23.16H21.7M27,32.76,26.42,32a4.82,4.82,0,0,0-1-.6l1.74-.86a2.2,2.2,0,0,1-.5,1.67m.17-2.09.08.07h0l-.2.11a.8.8,0,0,1,.08-.16m-1.59-.41a1.35,1.35,0,0,1,.69,0,.66.66,0,0,1-.69,0m0,0a.68.68,0,0,0,.4.56.86.86,0,0,0,.86-.14.33.33,0,0,0,.09.23l-1.38.71c0-.43-.32-.63-.6-.81a1,1,0,0,1,.43-.47l.2-.08M23.36,31a1.15,1.15,0,0,0,.1.35h-.05a.76.76,0,0,0-.05-.33m1,.5h0m.15.39.22-.11a3.47,3.47,0,0,1,.67.6,5.23,5.23,0,0,1-.82-.41l-.07-.08m-1.7-.69h0l.06-.2v.2m-.57,0h-.06c.06-.07.13-.14.18-.21l-.12.2m2.81,0a3.44,3.44,0,0,1-.58-.35h.16a.88.88,0,0,1,.58.29ZM26,28.88a2.27,2.27,0,0,0-1.15.17,1.16,1.16,0,0,0-.43.25,1.29,1.29,0,0,1,.67-.63.86.86,0,0,1,.91.21m-3.6,3.45.18.08v.09l-.29.14c.05-.1.08-.2.13-.31m-2.29,1.79.2-.09v.21a.35.35,0,0,1-.19-.12m2-1,.34-.17c-.06.28-.11.58-.15.89H22a3.62,3.62,0,0,1,.14-.73m3.65.77.4.18a.3.3,0,0,1-.33.16H25.7a1.61,1.61,0,0,0,0-.31h.13M28,30.19h0v0m0,.24v0m2.22-5.87.11.06.12.23h-.1l-.13-.28m1.44,0a.6.6,0,0,1,.19.06l0,.05-.2-.05a.06.06,0,0,0,0-.06m-14,5.55v.07h0v-.05m11.21,3.23L28,33l.56-1.2a3.34,3.34,0,0,0,.75.49ZM28,30.86Zm-.85-4a.73.73,0,0,1-.4-.39,1,1,0,0,0,.41.07,1.82,1.82,0,0,1-.1-2l.1-.07c.11.22.42.22.57.38a.61.61,0,0,1,.16-.12A10.88,10.88,0,0,0,28,26h0a2,2,0,0,0-.83.87m3.31-1.75.17.06.09.19H30.6a1.23,1.23,0,0,0-.12-.26m1.62,0v.11a.22.22,0,0,0-.05-.08.36.36,0,0,1,.07-.17h0a.21.21,0,0,0-.06.1m-16.17,2.2-.2-.1-.19-.09h-.07a.73.73,0,0,0-.4-.53.43.43,0,0,0,0-.47.22.22,0,0,0,.07-.09c.21-.33.83-1.53,1-1.86-.08.25-.73,1.63-.77,1.75-.16.45.23.54.39.84.25-.15.67,0,.84-.47s.36-1.34.5-1.61c0,.3-.11.71-.17,1.18s.37.44.61.69c.21-.19.6-.14.66-.55s.08-1.24.08-1.24a.57.57,0,0,1,.15.12c.16-.16.47-.16.57-.38l.11.07a1.84,1.84,0,0,1-.11,2,1,1,0,0,0,.41-.07v.08h0v.07h0a.8.8,0,0,1-.13.13,1,1,0,0,1-1,.07.68.68,0,0,0,.08.24,1.24,1.24,0,0,0-1,.69,1,1,0,0,0-.12.48h0a.06.06,0,0,1-.06,0,.09.09,0,0,1,0-.06h-.17l-.12.07h-.06c-.08,0-.2,0-.2.16h0a.11.11,0,0,0,0,.08h-.17l-.19-.06h.2l-.51-.23h0l-.12-.05h-.16ZM15.25,29h0m2.34,1.37a.09.09,0,0,0,0-.07h0a.09.09,0,0,1,0,.07h0m.45,0Zm.75,4.09a.35.35,0,0,1,.12-.19v.13Zm12.34-2-.1.2-.23-.1.33-.1m-.38.11-.39.81-.41-.2.27-.59a2.35,2.35,0,0,0,.53,0M28.56,30.4v-.07h0a.09.09,0,0,0,0,.07h0m0-.43h0V30h0m.67-4v-.08c-.07-.47-.16-.88-.18-1.18A11.44,11.44,0,0,1,29.49,26l-.24-.08m1.56,0c0-.12-.1-.24-.16-.36l.22.1c.05.1.1.18.14.25a.61.61,0,0,0-.19,0h0"/>
    <path class="m" d="M34.16,25.75a.94.94,0,0,0-.49.63h-.06v.09a.17.17,0,0,0-.14,0c-.17.08-.08.28-.08.28a2.17,2.17,0,0,0,.15.35,2.5,2.5,0,0,0,.21.35s.14.15.27.08a.19.19,0,0,0,.09-.15h.19a.93.93,0,0,0,1.15-1.29.94.94,0,0,0-1.26-.41"/>
    <path class="m" d="M32.23,27.39c-.1-.16,0-.23,0-.23a.11.11,0,0,1-.08,0l-.34.17a.31.31,0,0,0-.2.19,1,1,0,0,0,.66-.1"/>
    <path class="m" d="M32.08,27.11A.15.15,0,0,1,32,27s0-.11.07-.14H31.8a1.26,1.26,0,0,0-.56.26c.19.19.6.13.83.07"/>
    <path class="m" d="M32,26.76a.31.31,0,0,1-.11-.2.22.22,0,0,1,.09-.2,2.56,2.56,0,0,0-1.1.09,1,1,0,0,0,.79.29H32"/>
    <path class="m" d="M34.3,28.37c-.22,0-.35.18-.57.17a.49.49,0,0,1-.44-.23.89.89,0,0,1-.06-.64l-.64.33c0,.13.19.16.19.16a.22.22,0,0,0,0,.22c.06.1.21.06.21.06a.52.52,0,0,0,.09.3.24.24,0,0,0,.26,0,.43.43,0,0,0,.12.32.26.26,0,0,0,.27,0s0,.16.12.19a.22.22,0,0,0,.26-.1.52.52,0,0,0,.22.32.36.36,0,0,0,.32,0c.17-.13.06.06,0,.11l-.24.72a.71.71,0,0,0,0,.57s.1.11.18.09c.07-.27.16-.53.24-.8a3.26,3.26,0,0,0,.18-.92.7.7,0,0,0-.2-.61.55.55,0,0,0-.53-.23"/>
    <path class="m" d="M32.71,28.19s-.09,0-.16-.17a1,1,0,0,0-.47.47.42.42,0,0,0,.27,0,2.16,2.16,0,0,0,.34-.17.11.11,0,0,1,0-.08"/>
    <path class="m" d="M32.92,28.55v-.06h-.16a.14.14,0,0,1-.08-.15c-.19.15-.48.43-.43.71a1.1,1.1,0,0,0,.53-.31,1,1,0,0,0,.13-.16"/>
    <path class="m" d="M33,28.79a.28.28,0,0,1-.1-.21l-.19.28a1,1,0,0,0-.22.81,2.64,2.64,0,0,0,.72-.84.26.26,0,0,1-.21,0"/>
    <path class="m" d="M33.56,29.16a.23.23,0,0,1-.19-.1.36.36,0,0,1-.09-.24l-.1.17a1.78,1.78,0,0,0-.33,1.07,1.38,1.38,0,0,0,.31-.28l.4-.62"/>
    <path class="m" d="M33.67,29.74l.25-.42a.18.18,0,0,1-.17-.07.27.27,0,0,1-.06-.12h-.08l-.16.26a2.77,2.77,0,0,0-.34,1.19,2.09,2.09,0,0,0,.2-.22c.11-.16.36-.64.36-.64"/>
    <path class="m" d="M34.21,29.47a.49.49,0,0,1-.14-.23.18.18,0,0,1-.1.07,3.93,3.93,0,0,1-.29.55c-.21.37-.5,1.18-.36,1.4a3,3,0,0,0,.53-.92Z"/>
    <path class="m" d="M34.3,30.5l.39-1.05c-.22.15-.3.11-.43.05l-.4,1a2.34,2.34,0,0,0-.19,1.28.57.57,0,0,0,.21-.25.94.94,0,0,0,.12-.22Z"/>
    <path class="m" d="M34.32,30.63a5.08,5.08,0,0,0-.38,1.2,2.14,2.14,0,0,0,.16.75L34.59,31s-.24,0-.27-.36"/>
    <path class="c" d="M23.05,20.27H19.92v6.35c0,.78.34,1.16,1,1.16h1a1.13,1.13,0,0,1,1.06.88A1.13,1.13,0,0,1,24,27.78h1.05c.69,0,1-.38,1-1.16V20.27Z"/>
    <path class="n" d="M23.05,20.27H19.92v6.35c0,.78.34,1.16,1,1.16h1a1.13,1.13,0,0,1,1.06.88A1.13,1.13,0,0,1,24,27.78h1.05c.69,0,1-.38,1-1.16V20.27Z"/>
    <path class="m" d="M21.88,20.83h0l.07.26a.2.2,0,0,0-.08.12v.19H21.6a1.2,1.2,0,0,0-.38.05.3.3,0,0,0-.24.25.14.14,0,0,0,.06.12.41.41,0,0,0-.13.25.11.11,0,0,0,0,.08H21a.24.24,0,0,0,0,.12.11.11,0,0,0,.1.11s.09.1.15.1h0a.51.51,0,0,0,.09-.08.17.17,0,0,1,.13.07h0v.15h0a.41.41,0,0,0,.14-.12h.21l.08.05H22a.17.17,0,0,1,.13-.07l.07.23h0c0,.2.11.29.12.46h-.16a.87.87,0,0,0-.52.14h.07c-.09-.1-.14-.24-.28-.29h-.17a.5.5,0,0,0-.24.06l-.14.11-.07.06a.72.72,0,0,0-.09.2,1.22,1.22,0,0,0,0,.27.3.3,0,0,1-.05.2.07.07,0,0,0,0,.09l.11-.05a1.15,1.15,0,0,0,0,.37.49.49,0,0,1,0,.17.42.42,0,0,0,.16-.25.55.55,0,0,1,0,.31c.06,0,.08-.09.16-.15s.07,0,.1-.06l.1-.22v.34l.08,0h0a.19.19,0,0,0,.1-.05c.12-.15,0-.4,0-.57a1.13,1.13,0,0,1,0-.26.24.24,0,0,1,.07-.16h.07a.17.17,0,0,1,.15.12.7.7,0,0,0-.09.4.82.82,0,0,0,.24.55.28.28,0,0,1,0,.18h0a.48.48,0,0,1-.07.2.47.47,0,0,1-.21.16.2.2,0,0,1-.05.13c0,.05,0,.11,0,.14a1.86,1.86,0,0,1-.08.41c-.05.14-.21.2-.2.36h0c0,.08-.07.11-.06.19h0a1.44,1.44,0,0,1-.07-.16s0-.34-.11-.43a.27.27,0,0,0-.19-.08.11.11,0,0,0-.08,0h0c.12,0,.2.12.22.25a1.13,1.13,0,0,0,0,.26.75.75,0,0,0,.1.36,1.12,1.12,0,0,0,.2.18,1,1,0,0,0,.42.09H22V27a.45.45,0,0,1-.17.11h.26c.3,0,.25.18.25.18h.12a1,1,0,0,1,.41.09l.15.07a1.36,1.36,0,0,1,.29-.06h.06l.26.05h.06c.07,0,.08-.1.13-.21l.15-.06h0V27c0-.11.07,0,.1-.07h.26c.08,0,.13.14.22.14h.06l.06-.09h.55a.14.14,0,0,0,.09,0,.61.61,0,0,0,0-.12.17.17,0,0,0,0-.14l-.06.11a0,0,0,0,1,.05-.05h0a.26.26,0,0,1-.07.11c0-.06.07-.17,0-.24a.23.23,0,0,1-.13.21.2.2,0,0,0,0-.15.17.17,0,0,1,0,.1V26.7a.16.16,0,0,1-.11.13v0c0-.05,0,0-.06,0s0-.05,0-.06v0h0a.28.28,0,0,0-.08-.15c.05,0,0-.06.05-.08h0v-.05H25a.08.08,0,0,1,.08.08.22.22,0,0,0,0-.16h0a.21.21,0,0,1,0,.11v-.13s0,0,.06.08,0-.17-.1-.17h0c-.06,0-.1.08-.15.1s-.06,0-.08,0l-.06.05-.15.1c0-.06-.09-.09-.11-.15a.24.24,0,0,0,0-.12.07.07,0,0,1-.07-.06.06.06,0,0,0,0-.06h-.07a.8.8,0,0,1-.07-.34v-.07a.14.14,0,0,0,0-.09v-.06l-.07-.09v-.07a1.72,1.72,0,0,0-.1-.39.29.29,0,0,1,0-.13h0l.15.06c.17,0,.24-.18.38-.25l.2-.12H25a.34.34,0,0,1,.13-.05h0c0,.17,0,.35-.12.41s-.09,0-.11.1h0v.1h0a.22.22,0,0,0-.1-.05h0c-.08,0-.14.2-.1.3h0c.12,0,.18-.07.3-.07h0a.4.4,0,0,0,.17-.12V25a1.19,1.19,0,0,0,.11-.26V24.6a1.28,1.28,0,0,1,.07-.34c0-.05,0-.16-.1-.19h0A1.63,1.63,0,0,0,25,24a3.56,3.56,0,0,1-.47.1c.07-.26-.08-.45-.11-.67a1.74,1.74,0,0,0-.05-.22h.16a.12.12,0,0,1,.1-.11h0a.09.09,0,0,0,.09.08h0a.1.1,0,0,0,.08-.05h.06c0-.05.13,0,.18-.07s0-.23,0-.4a1,1,0,0,0-.1-.41h0a.11.11,0,0,0,.08,0h0A.39.39,0,0,0,25,22l.07-.07a.28.28,0,0,0-.18,0,.14.14,0,0,0-.12-.06h0a.64.64,0,0,0,.1-.13h-.18a.15.15,0,0,0-.13,0h0a.31.31,0,0,0-.19,0,.24.24,0,0,0-.12,0l-.31.07a.15.15,0,0,1,.14.07h-.13a.72.72,0,0,0-.28.13h0a.18.18,0,0,0-.1.11h.07c0,.05-.24,0-.26.1h.06a.29.29,0,0,1,.13,0c-.1.05-.09.21-.23.21h0a.51.51,0,0,0-.1-.24.75.75,0,0,0-.15-.16H23v-.12h.13a.13.13,0,0,0,.13-.13v-.05s.06-.1.06-.17-.08-.13-.11-.18a.25.25,0,0,0-.17-.11h-.09a.32.32,0,0,0-.21.08h0a.49.49,0,0,1,.17-.06h0a.06.06,0,0,1,.06,0h.09c.13,0,.11.14.17.17a.09.09,0,0,1,.05.1c0,.09-.05.13-.05.17v.06a.13.13,0,0,1-.1.1h-.07l.05,0h0a.22.22,0,0,0,0-.08h0v-.21a.17.17,0,0,1,0,.1v0c0,.05,0,0-.08,0h0s-.24.18-.27.3a.11.11,0,0,1-.08,0,.06.06,0,0,1,0-.08h0a.24.24,0,0,1,.09-.15c-.06,0-.09.1-.13.16h0a.16.16,0,0,1,.09-.18h0a.15.15,0,0,0-.11.08h0a.16.16,0,0,1,.07-.09.41.41,0,0,1,.11-.07.24.24,0,0,0,.14,0h-.13a.21.21,0,0,0-.1.06s-.08.07-.08.1v.16h.05a.75.75,0,0,1-.07.12l-.15-.12-.18-.07a.56.56,0,0,0-.24-.13H22v-.06h0v-.06a.1.1,0,0,0-.08-.1H22l-.08-.27h0Zm1.42,5.08-.27-1a1.05,1.05,0,0,0,.06-.24h.21a.35.35,0,0,1,.08.24v.26h0l.18-.05h.06a.1.1,0,0,1,.08.05,1.18,1.18,0,0,0,.17.24v.14c.07.12.18.2.21.36h0c-.08,0-.1.1-.06.16s0-.06.05-.08h0v.08h0c-.07,0-.12.08-.07.13a0,0,0,0,0,0-.05h.09a.21.21,0,0,1,0,.11.07.07,0,0,0-.07.06H24a.17.17,0,0,0-.1,0h0a.06.06,0,0,1,0,.06h-.08a.09.09,0,0,1-.09-.06.14.14,0,0,0-.09,0h-.07a.21.21,0,0,0-.11,0h.07a.29.29,0,0,1,.11-.07h0s0,0,0-.09-.09-.06-.11-.07-.11.08-.17.11-.06,0-.08,0,0,.07-.08.09,0-.11,0-.15.08-.12.17-.14,0,0,0,.06h0c.06,0,.09-.11,0-.16H23.2c-.08,0,0,.11-.09.16s0-.09,0-.13a.09.09,0,0,1-.06-.06H23m-1.56.7h-.17c0-.09-.07-.12-.08-.21a.36.36,0,0,1,0-.11v-.12a.74.74,0,0,1,0-.21c0-.13.14-.22.18-.36l.17-.16.18-.19a4,4,0,0,0,.43-.29.27.27,0,0,1,0,.34.17.17,0,0,1,0,.1.48.48,0,0,0,.17.05,1,1,0,0,1,.4.52.41.41,0,0,0,.07.15V26l.07.06h-.06v.11s-.15,0-.19,0a.21.21,0,0,0-.14.07h-.12a.09.09,0,0,0,0-.07.31.31,0,0,0,0-.19.42.42,0,0,0-.45-.34h-.23a.31.31,0,0,0-.13.06.51.51,0,0,0-.22.63h0a.08.08,0,0,1,.08.09"/>
    <path class="o" d="M35.41,26.1a1,1,0,0,0-1.27-.41.94.94,0,0,0-.5.65c-.29.23-.35.42-.33.56l-5.5,2.8-.06-.31s-.61-2.15.68-2.81a.67.67,0,0,1,.74.19,1.32,1.32,0,0,1,.15.58c0,.41.17.39.17.39a1.63,1.63,0,0,1,.05-.49s0-.12.09-.15.07.14.07.14.05.54.22.66a.82.82,0,0,1,.3-.49s.25-.34-.18-1A1.79,1.79,0,0,0,27.91,26c-.57.28-1.47,1.19-1,3.27a2.25,2.25,0,0,0-2.2-.21c-.94.33-1.24,1.71-1.32,2.37a3,3,0,0,0-1.47-.14L15.6,28.36h0l-.32-.14.43-.91-.4-.19h-.07a.79.79,0,0,0-.41-.53.43.43,0,0,0-.18-.58h-.08a.59.59,0,0,0-.25-.8h0a.61.61,0,0,0-.79.31h-.07a.43.43,0,0,0-.56.23.88.88,0,0,0-1.11.47.92.92,0,0,0-.08.27.56.56,0,0,0-.6.32.54.54,0,0,0,.14.66,1.19,1.19,0,0,0-.16.23.86.86,0,0,0,.33,1.15.44.44,0,0,0,.19.57h.08a.6.6,0,0,0,.26.8.62.62,0,0,0,.79-.31h.07a.43.43,0,0,0,.56-.23.79.79,0,0,0,.67,0h.07l.4.18.4-.85.45.21,5.53,2.56a2.44,2.44,0,0,0-.71,1.43L19.91,33a2,2,0,0,0-2.42.07c-1,1-.35,1.68-.35,1.68a1.75,1.75,0,0,1,.67-1.08,2.9,2.9,0,0,1,.41-.27,1.39,1.39,0,0,1,.9,0,3.61,3.61,0,0,1,.64.27l.13.11-3.17,1.61s-.13.08-.07.19h0a.15.15,0,0,0,.19.06L20.08,34a4,4,0,0,1-.09.77,1.16,1.16,0,0,1-.11.33,1.51,1.51,0,0,1-.15.28.89.89,0,0,1-.31.3,1.88,1.88,0,0,1-.3.12,2.9,2.9,0,0,1-.57.12,1.58,1.58,0,0,1-.88-.17s.19.92,1.59.71A1.74,1.74,0,0,0,20.68,35a4.37,4.37,0,0,0,.06-.72,2.19,2.19,0,0,0,1.8.22,2.51,2.51,0,0,0,1.39-1.38l5.59,2.59h0a.44.44,0,0,0,.57-.21.42.42,0,0,0-.2-.56h0l-.62-.29.2-.42.94.43,1-2.19-.29-.14h0a1.75,1.75,0,0,0,.87-2c-.27-.72-.7-.71-.7-.71a.89.89,0,0,1-.58-.06c0,.21.41.56.41.56s.15.11.09.14a.25.25,0,0,1-.17,0,1.66,1.66,0,0,1-.45-.25s-.09.1.21.36a1.19,1.19,0,0,1,.39.47.63.63,0,0,1-.28.7c-1.31.64-2.7-1.11-2.7-1.11l-.3-.32,5.57-2.76c.11.1.28.14.64,0a.89.89,0,0,0,.81,0,.93.93,0,0,0,.43-1.24v0M13.24,28.8H13a.43.43,0,1,1-.86,0,.38.38,0,0,1,.11-.33,1.21,1.21,0,0,1-.36-.71,1.17,1.17,0,0,1,1-1.29h.24a.45.45,0,0,1,.37-.29.43.43,0,0,1,.48.37.46.46,0,0,1-.08.3,1.15,1.15,0,0,1,.3.65,1.17,1.17,0,0,1-1,1.29m11.1,3.13,2.8-1.39a1.88,1.88,0,0,1-.82,1.9c-.5.29-1.4-.15-2-.51m.63-2.12a1.85,1.85,0,0,1,1.93.39l-2.68,1.36c.07-.67.25-1.54.75-1.75m-2.48,2.63-1.6.81a1.53,1.53,0,0,1,.71-1.11l.13-.05Zm-.06,1.31a1.65,1.65,0,0,1-1.45-.15l1.94-1,.33.15a1.8,1.8,0,0,1-.82,1m5.19.13-1.26-.58a1.27,1.27,0,0,0,.45-.19l.11-.07.9.42Zm.21-1,.59-1.23a3.48,3.48,0,0,0,.88.59l-.51,1.09Zm3.28-.54-.11.21-.23-.1a1.93,1.93,0,0,0,.34-.11m-.39.12-.38.81L29.77,33l.27-.56a2.15,2.15,0,0,0,.62,0M31,24.15V24c.26.11.53.19.8.29a3.12,3.12,0,0,1,.87.4c.14.15.34.3.38.52a.59.59,0,0,1-.13.57c-.12.19-.36.18-.49.35a.51.51,0,0,0-.07.49.86.86,0,0,0,.49.43l-.65.32c-.09-.09,0-.24,0-.24s-.15,0-.19-.12a.19.19,0,0,1,.07-.2s-.19-.11-.19-.25a.24.24,0,0,1,.14-.22.46.46,0,0,1-.17-.28.24.24,0,0,1,.15-.22s-.1-.14-.09-.22.13-.14.24-.14a.56.56,0,0,1-.13-.37.37.37,0,0,1,.23-.24c.21-.06,0-.09-.07-.11l-.73-.22c-.17-.07-.4-.15-.47-.34m.52,3.3c0-.09.14-.16.2-.2l.34-.17a.14.14,0,0,0,.09,0s-.07.07,0,.23a1,1,0,0,1-.66.11M31.19,27a1.18,1.18,0,0,1,.57-.25h.29c.05,0-.07.14-.07.14a.16.16,0,0,0,.07.16c-.23.07-.64.13-.84-.07m.42-.3a1,1,0,0,1-.8-.29A2.64,2.64,0,0,1,32,26.3a.22.22,0,0,0-.09.2.31.31,0,0,0,.11.2h-.34m.16-.43a1.76,1.76,0,0,1-1.08-.37,1.15,1.15,0,0,1,.41-.08l.76.05a.23.23,0,0,0,0,.2.4.4,0,0,0,.14.22Zm-.18-.47a2.85,2.85,0,0,1-1.19-.43,1.5,1.5,0,0,1,.3,0c.2,0,.75.09.75.09H32a.2.2,0,0,0-.05.18l.06.12-.06,0Zm-1.6-1a3,3,0,0,1,1.07.11l.93.24a.51.51,0,0,0,.1.24.21.21,0,0,0-.11,0l-.63-.09c-.42-.06-1.26-.3-1.36-.54m1,0a2.48,2.48,0,0,1-1.17-.6.5.5,0,0,1,.34,0,1,1,0,0,1,.24,0l.82.22,1.09.31c-.25.09-.27.18-.3.32l-1-.26m-1.59-1.44,1.59.55s-.16.18.14.43A5.09,5.09,0,0,1,29.9,24a1.89,1.89,0,0,1-.52-.57m5.44,5.17a1,1,0,0,1,.2.61,3.28,3.28,0,0,1-.19.93c-.07.27-.16.53-.24.8a.3.3,0,0,1-.18-.09,5.37,5.37,0,0,1,0-.58,3.39,3.39,0,0,1,.25-.71s.12-.25-.06-.12a.4.4,0,0,1-.32,0,.49.49,0,0,1-.23-.33.23.23,0,0,1-.25.11c-.08,0-.13-.2-.13-.2a.26.26,0,0,1-.27,0,.39.39,0,0,1-.12-.31.26.26,0,0,1-.27,0c-.12-.09-.09-.3-.09-.3a.2.2,0,0,1-.21-.06.24.24,0,0,1,0-.23.2.2,0,0,1-.19-.16l.65-.32a.89.89,0,0,0,.06.64.51.51,0,0,0,.45.23c.21,0,.35-.19.57-.18a.6.6,0,0,1,.54.24m-2.17-.33-.34.17a.45.45,0,0,1-.28.05,1,1,0,0,1,.48-.47c.07.18.17.16.17.16a.14.14,0,0,0,0,.09m-.44.75a1.05,1.05,0,0,1,.44-.71c0,.08,0,.12.09.14a.22.22,0,0,0,.16,0,.09.09,0,0,0,0,.07,1,1,0,0,1-.13.16,1.13,1.13,0,0,1-.54.31m1-.19a2.67,2.67,0,0,1-.73.84,1,1,0,0,1,.24-.81l.18-.28a.28.28,0,0,0,.1.21.2.2,0,0,0,.21,0m-.08,1a1.38,1.38,0,0,1-.31.28,1.73,1.73,0,0,1,.3-1.06,1,1,0,0,0,.1-.17.37.37,0,0,0,.1.24.23.23,0,0,0,.19.1s-.37.6-.41.63m.16.6a1.45,1.45,0,0,1-.21.22,2.69,2.69,0,0,1,.35-1.2l.16-.26h.07a.41.41,0,0,0,.07.11.16.16,0,0,0,.18.07l-.25.42s-.26.49-.37.65m.55,0a3.27,3.27,0,0,1-.54.92c-.14-.22.16-1,.36-1.4l.3-.56a.15.15,0,0,0,.09-.06.54.54,0,0,0,.15.22Zm.14,1a2.12,2.12,0,0,1-.11.21.59.59,0,0,1-.22.25,2.29,2.29,0,0,1,.2-1.29l.4-1a.38.38,0,0,0,.43,0l-.39,1Zm.6-.29-.5,1.59a2.46,2.46,0,0,1-.16-.76,5.1,5.1,0,0,1,.39-1.2c0,.39.27.37.27.37M30,27.19a.11.11,0,0,1-.12-.1h0A.12.12,0,0,1,30,27h0a.13.13,0,0,1,.12.11A.14.14,0,0,1,30,27.19ZM30,27a.07.07,0,0,0-.07.06.06.06,0,0,0,.07.06h0A.06.06,0,0,0,30,27h0m1.54,3.12a.11.11,0,0,1-.12-.1h0a.11.11,0,0,1,0-.08.11.11,0,0,1,.09-.05h0a.11.11,0,0,1,.11.11h0a.06.06,0,0,1-.08.08Zm0-.18h-.06a.07.07,0,0,0,.07.07h0a.06.06,0,0,0-.06-.06"/>
  </g>
</svg>
