<svg height="512" viewBox="0 0 64 64" width="512" xmlns="http://www.w3.org/2000/svg"><g id="help-arrow-direction-button-pointer"><rect fill="#57a4ff" height="58" rx="4" width="58" x="3" y="3"/><path d="m57 3h-3a4 4 0 0 1 4 4v50a4 4 0 0 1 -4 4h3a4 4 0 0 0 4-4v-50a4 4 0 0 0 -4-4z" fill="#2488ff"/><g fill="#f1f2f2"><circle cx="32" cy="49" r="4"/><path d="m30.56 11.08a12 12 0 0 0 -8.74 18.28l5.1-3.18a5.859 5.859 0 0 1 -.92-3.18 6 6 0 1 1 9 5.19c-.378.223-1.537.773-2.737 1.327a5.621 5.621 0 0 0 -3.263 5.103v6.38h6v-5.634a1.01 1.01 0 0 1 .717-.954 12 12 0 0 0 -5.157-23.332z"/></g></g></svg>