<?xml version="1.0" encoding="UTF-8"?>
<svg xmlns="http://www.w3.org/2000/svg" xmlns:xlink="http://www.w3.org/1999/xlink" width="70pt" height="70pt" viewBox="0 0 70 70" version="1.1">
<g id="surface1">
<path style=" stroke:none;fill-rule:nonzero;fill:rgb(74.117647%,85.882353%,100%);fill-opacity:1;" d="M 56 40.832031 L 56 54.832031 L 11.667969 54.832031 C 7.804688 54.839844 4.671875 57.96875 4.667969 61.832031 L 4.667969 8.167969 C 4.667969 4.300781 7.800781 1.167969 11.667969 1.167969 L 53.667969 1.167969 C 54.953125 1.171875 55.996094 2.214844 56 3.5 Z M 39.667969 45.5 L 39.667969 31.5 C 39.660156 28.199219 37.351562 25.347656 34.125 24.652344 C 33.644531 24.546875 33.15625 24.496094 32.667969 24.5 L 32.667969 21.535156 C 34.113281 20.707031 35.003906 19.167969 35 17.5 L 35 15.167969 C 35 12.589844 32.910156 10.5 30.332031 10.5 C 27.757812 10.5 25.667969 12.589844 25.667969 15.167969 L 25.667969 17.5 C 25.664062 19.167969 26.554688 20.707031 28 21.535156 L 28 24.5 C 27.507812 24.496094 27.019531 24.546875 26.542969 24.652344 C 23.3125 25.347656 21.003906 28.199219 21 31.5 L 21 45.5 Z M 39.667969 45.5 "/>
<path style=" stroke:none;fill-rule:nonzero;fill:rgb(74.117647%,85.882353%,100%);fill-opacity:1;" d="M 65.332031 15.167969 L 65.332031 22.167969 C 65.328125 23.453125 64.285156 24.496094 63 24.5 L 56 24.5 L 56 12.832031 L 63 12.832031 C 64.285156 12.835938 65.328125 13.878906 65.332031 15.167969 Z M 65.332031 15.167969 "/>
<path style=" stroke:none;fill-rule:nonzero;fill:rgb(23.921569%,60.392157%,88.627451%);fill-opacity:1;" d="M 63 25.667969 C 64.933594 25.667969 66.5 24.097656 66.5 22.167969 L 66.5 15.167969 C 66.5 13.234375 64.933594 11.667969 63 11.667969 L 57.167969 11.667969 L 57.167969 3.5 C 57.167969 1.566406 55.597656 0 53.667969 0 L 11.667969 0 C 7.160156 0.00390625 3.503906 3.660156 3.5 8.167969 L 3.5 61.832031 C 3.503906 66.339844 7.160156 69.996094 11.667969 70 L 56 70 C 56.644531 70 57.167969 69.476562 57.167969 68.832031 L 57.167969 42 L 63 42 C 64.933594 42 66.5 40.433594 66.5 38.5 L 66.5 31.5 C 66.5 29.566406 64.933594 28 63 28 L 57.167969 28 L 57.167969 25.667969 Z M 63 14 C 63.644531 14 64.167969 14.523438 64.167969 15.167969 L 64.167969 22.167969 C 64.167969 22.8125 63.644531 23.332031 63 23.332031 L 57.167969 23.332031 L 57.167969 14 Z M 5.832031 8.167969 C 5.835938 4.945312 8.445312 2.335938 11.667969 2.332031 L 53.667969 2.332031 C 54.3125 2.332031 54.832031 2.855469 54.832031 3.5 L 54.832031 53.667969 L 11.667969 53.667969 C 9.46875 53.667969 7.363281 54.554688 5.832031 56.128906 Z M 11.667969 67.667969 C 8.445312 67.667969 5.832031 65.054688 5.832031 61.832031 C 5.832031 58.613281 8.445312 56 11.667969 56 L 54.832031 56 L 54.832031 58.332031 L 11.667969 58.332031 L 11.667969 60.667969 L 54.832031 60.667969 L 54.832031 63 L 11.667969 63 L 11.667969 65.332031 L 54.832031 65.332031 L 54.832031 67.667969 Z M 63 30.332031 C 63.644531 30.332031 64.167969 30.855469 64.167969 31.5 L 64.167969 38.5 C 64.167969 39.144531 63.644531 39.667969 63 39.667969 L 57.167969 39.667969 L 57.167969 30.332031 Z M 63 30.332031 "/>
<path style=" stroke:none;fill-rule:nonzero;fill:rgb(23.921569%,60.392157%,88.627451%);fill-opacity:1;" d="M 21 46.667969 L 39.667969 46.667969 C 40.3125 46.667969 40.832031 46.144531 40.832031 45.5 L 40.832031 31.5 C 40.828125 27.441406 37.847656 24 33.832031 23.414062 L 33.832031 22.132812 C 35.296875 21.039062 36.160156 19.324219 36.167969 17.5 L 36.167969 15.167969 C 36.167969 11.945312 33.554688 9.332031 30.332031 9.332031 C 27.113281 9.332031 24.5 11.945312 24.5 15.167969 L 24.5 17.5 C 24.503906 19.328125 25.371094 21.042969 26.832031 22.136719 L 26.832031 23.421875 C 22.820312 24.003906 19.839844 27.445312 19.832031 31.5 L 19.832031 45.5 C 19.832031 46.144531 20.355469 46.667969 21 46.667969 Z M 30.332031 21 C 28.402344 21 26.832031 19.433594 26.832031 17.5 L 26.832031 17.398438 C 28.503906 17.179688 30.09375 16.550781 31.464844 15.570312 C 32.175781 16.222656 32.972656 16.769531 33.832031 17.199219 L 33.832031 17.5 C 33.832031 19.433594 32.265625 21 30.332031 21 Z M 30.332031 11.667969 C 31.972656 11.667969 33.394531 12.8125 33.746094 14.414062 C 33.246094 14.03125 32.773438 13.617188 32.324219 13.175781 C 31.871094 12.71875 31.132812 12.71875 30.675781 13.175781 C 29.613281 14.160156 28.28125 14.804688 26.847656 15.03125 C 26.921875 13.15625 28.457031 11.671875 30.332031 11.667969 Z M 30.332031 23.332031 C 30.726562 23.332031 31.117188 23.292969 31.5 23.214844 L 31.5 24.5 C 31.503906 24.933594 31.75 25.332031 32.140625 25.523438 L 30.332031 28.234375 L 28.527344 25.527344 C 28.917969 25.332031 29.164062 24.9375 29.167969 24.5 L 29.167969 23.214844 C 29.550781 23.292969 29.941406 23.332031 30.332031 23.332031 Z M 22.167969 31.5 C 22.175781 29.035156 23.730469 26.84375 26.054688 26.023438 L 29.363281 30.980469 C 29.578125 31.304688 29.941406 31.5 30.332031 31.5 C 30.722656 31.5 31.085938 31.304688 31.304688 30.980469 L 34.613281 26.023438 C 36.933594 26.84375 38.492188 29.035156 38.5 31.5 L 38.5 44.332031 L 22.167969 44.332031 Z M 22.167969 31.5 "/>
</g>
</svg>
