<svg height="512" viewBox="0 0 64 64" width="512" xmlns="http://www.w3.org/2000/svg"><g id="Mechanic"><path d="m25 15v3l-2 2-2-2v-3z" fill="#ffc477"/><path d="m27.39 35h-.39-9v22h5 5v-21-.65-.35z" fill="#787680"/><path d="m34.21 21.47-3.7-2.46a5.958 5.958 0 0 0 -3.33-1.01h-2.18l-2 2-2-2a6 6 0 0 0 -5.35 3.29 5.86 5.86 0 0 0 -.65 2.71v6.51l.85-1.27.44-.65.7-1.05a1.855 1.855 0 0 1 2.53-.51 1.829 1.829 0 0 1 .83 1.54 1.781 1.781 0 0 1 -.26.94l-.57.95-.52.87-1 1.67v2h10v-12l2 1-1.8 2.71 2.92 1.76 3.39-5.65a1.012 1.012 0 0 0 -.3-1.35z" fill="#3d9ae2"/><path d="m37.86 35.27 3.11 1.79a4.993 4.993 0 0 0 -6.92-5.15l-19.08-11.01-.01.03a4.993 4.993 0 0 0 -7.93-3.46l3.11 1.8-.13 2.23-1.87 1.23-3.11-1.79a5.027 5.027 0 0 0 2.48 4.89 4.969 4.969 0 0 0 4.48.24l-.02.03 19.08 11.01a4.952 4.952 0 0 0 2.44 3.72 5.035 5.035 0 0 0 5.48-.3l-3.11-1.8.13-2.23z" fill="#c6c5ca"/><path d="m58.82 30.54a6.936 6.936 0 0 1 -.9 2.19l1.15 1.93-1.41 1.41-1.93-1.15a6.936 6.936 0 0 1 -2.19.9l-.54 2.18h-2l-.54-2.18a6.936 6.936 0 0 1 -2.19-.9l-1.93 1.15-1.41-1.41 1.15-1.93a6.936 6.936 0 0 1 -.9-2.19l-2.18-.54v-2l2.18-.54a6.936 6.936 0 0 1 .9-2.19l-1.15-1.93 1.41-1.41 1.93 1.15a6.936 6.936 0 0 1 2.19-.9l.54-2.18h2l.54 2.18a6.936 6.936 0 0 1 2.19.9l1.93-1.15 1.41 1.41-1.15 1.93a6.936 6.936 0 0 1 .9 2.19l2.18.54v2z" fill="#ff9811"/><circle cx="52" cy="29" fill="#ffd422" r="3"/><path d="m48.82 13.54a6.936 6.936 0 0 1 -.9 2.19l1.15 1.93-1.41 1.41-1.93-1.15a6.936 6.936 0 0 1 -2.19.9l-.54 2.18h-2l-.54-2.18a6.936 6.936 0 0 1 -2.19-.9l-1.93 1.15-1.41-1.41 1.15-1.93a6.936 6.936 0 0 1 -.9-2.19l-2.18-.54v-2l2.18-.54a6.936 6.936 0 0 1 .9-2.19l-1.15-1.93 1.41-1.41 1.93 1.15a6.936 6.936 0 0 1 2.19-.9l.54-2.18h2l.54 2.18a6.936 6.936 0 0 1 2.19.9l1.93-1.15 1.41 1.41-1.15 1.93a6.936 6.936 0 0 1 .9 2.19l2.18.54v2z" fill="#ff9811"/><circle cx="42" cy="12" fill="#ffd422" r="3"/><path d="m31 59v2h-6l-2-1v-3h6a2.006 2.006 0 0 1 2 2z" fill="#57565c"/><path d="m28.2 26.71h-.01l-.19.3-.68 1.02-.34.51a1.755 1.755 0 0 0 -.3.97 1.783 1.783 0 0 0 .78 1.47 1.6 1.6 0 0 0 .54.23 1.752 1.752 0 0 0 1.95-.79l.39-.65.78-1.3z" fill="#ffc477"/><path d="m25 15v1.46a3.974 3.974 0 0 1 -4 0v-1.46z" fill="#ffb655"/><path d="m23 57v3l-2 1h-6v-2a2.006 2.006 0 0 1 2-2z" fill="#57565c"/><path d="m18 30.67-2.15-1.43-.85 1.27v.49a2.006 2.006 0 0 0 2 2h1l1-1.67z" fill="#3d9ae2"/><path d="m19.52 27.03a1.855 1.855 0 0 0 -2.53.51l-.7 1.05-.44.65 2.15 1.43 1 .66.52-.87.57-.95a1.781 1.781 0 0 0 .26-.94 1.829 1.829 0 0 0 -.83-1.54z" fill="#ffc477"/><path d="m28 5v2l-1 2-3-2-2 2h-3l-1-1v-2l-1-3h9a2.006 2.006 0 0 1 2 2z" fill="#57565c"/><path d="m27 9v3a4 4 0 0 1 -8 0v-3h3l2-2z" fill="#ffc477"/><path d="m22 40h2v17h-2z" fill="#57565c"/><g fill="#ee8700"><path d="m42 16a4 4 0 1 1 4-4 4 4 0 0 1 -4 4zm0-6a2 2 0 1 0 2 2 2 2 0 0 0 -2-2z"/><path d="m52 33a4 4 0 1 1 4-4 4 4 0 0 1 -4 4zm0-6a2 2 0 1 0 2 2 2 2 0 0 0 -2-2z"/></g></g></svg>