<svg height="480pt" viewBox="0 0 480 480" width="480pt" xmlns="http://www.w3.org/2000/svg"><path d="m184 296v176h-128v-176zm0 0" fill="#bddbff"/><path d="m424 376v96h-240v-176l48 80zm0 0" fill="#bddbff"/><path d="m304 170.480469v53.519531s-32 16-56 16-56-16-56-16v-53.519531l56 21.519531zm0 0" fill="#bddbff"/><path d="m352 152-48 18.480469-56 21.519531-56-21.519531-48-18.480469 104-40zm0 0" fill="#bddbff"/><g fill="#3d9ae2"><path d="m430.855469 291.878906c-1.445313-2.40625-4.046875-3.878906-6.855469-3.878906h-368c-2.789062.03125-5.355469 1.535156-6.742188 3.953125l-.113281-.074219-48 80c-1.484375 2.472656-1.527343 5.550782-.105469 8.058594 1.417969 2.511719 4.078126 4.0625 6.960938 4.0625h40v88c0 4.417969 3.582031 8 8 8h368c4.417969 0 8-3.582031 8-8v-88h40c2.882812 0 5.542969-1.550781 6.960938-4.0625 1.421874-2.507812 1.378906-5.585938-.105469-8.058594zm-408.71875 76.121094 25.863281-43.113281v43.113281zm153.863281 96h-112v-160h112zm240 0h-224v-139.121094l33.144531 55.242188c1.445313 2.40625 4.046875 3.878906 6.855469 3.878906h184zm-179.472656-96-38.398438-64h221.34375l38.398438 64zm0 0"/><path d="m368 432h32v16h-32zm0 0"/><path d="m336 432h16v16h-16zm0 0"/><path d="m408 64h16v-16h16v-16h-16v-16h-16v16h-16v16h16zm0 0"/><path d="m16 208h16v-16h16v-16h-16v-16h-16v16h-16v16h16zm0 0"/><path d="m64 64c13.253906 0 24-10.746094 24-24s-10.746094-24-24-24-24 10.746094-24 24 10.746094 24 24 24zm0-32c4.417969 0 8 3.582031 8 8s-3.582031 8-8 8-8-3.582031-8-8 3.582031-8 8-8zm0 0"/><path d="m432 240c0 13.253906 10.746094 24 24 24s24-10.746094 24-24-10.746094-24-24-24-24 10.746094-24 24zm24-8c4.417969 0 8 3.582031 8 8s-3.582031 8-8 8-8-3.582031-8-8 3.582031-8 8-8zm0 0"/><path d="m245.128906 104.527344-104 40c-3.09375 1.191406-5.132812 4.160156-5.128906 7.472656v36.6875l-21.65625 21.65625 11.3125 11.3125 10.34375-10.34375v12.6875h16v-12.6875l10.34375 10.34375 11.3125-11.3125-21.65625-21.65625v-25.039062l32 12.351562v48c0 3.03125 1.710938 5.804688 4.425781 7.160156 1.375.679688 33.972657 16.839844 59.574219 16.839844s58.199219-16.160156 59.574219-16.839844c2.714843-1.355468 4.425781-4.128906 4.425781-7.160156v-48l42.871094-16.488281c3.097656-1.183594 5.144531-4.15625 5.144531-7.472657 0-3.316406-2.046875-6.285156-5.144531-7.472656l-104-40c-1.84375-.707031-3.886719-.722656-5.742188-.039062zm50.871094 114.375c-15.066406 7.257812-31.335938 11.695312-48 13.097656-16.664062-1.410156-32.929688-5.847656-48-13.097656v-36.796875l45.128906 17.359375c1.847656.703125 3.894532.703125 5.742188 0l45.128906-17.351563zm33.710938-66.902344-81.710938 31.433594-81.710938-31.433594 81.710938-31.433594zm0 0"/><path d="m232 0h16v32h-16zm0 0"/><path d="m186.714844 8.074219 15.453125-4.140625 8.28125 30.90625-15.453125 4.144531zm0 0"/><path d="m145.070312 27.570312 13.855469-8 16 27.710938-13.855469 8.003906zm0 0"/><path d="m109.890625 57.203125 11.3125-11.3125 22.632813 22.632813-11.3125 11.3125zm0 0"/><path d="m83.578125 94.929688 8-13.859376 27.714844 16-8 13.855469zm0 0"/><path d="m67.929688 138.167969 4.140624-15.453125 30.910157 8.28125-4.140625 15.457031zm0 0"/><path d="m64 168h32v16h-32zm0 0"/><path d="m67.933594 213.824219 30.910156-8.28125 4.140625 15.457031-30.910156 8.28125zm0 0"/><path d="m83.578125 257.070312 27.714844-15.996093 8 13.855469-27.714844 15.996093zm0 0"/><path d="m360.714844 254.925781 8-13.855469 27.710937 16-8 13.855469zm0 0"/><path d="m377.027344 221.003906 4.140625-15.453125 30.910156 8.28125-4.144531 15.453125zm0 0"/><path d="m384 168h32v16h-32zm0 0"/><path d="m377.027344 130.992188 30.910156-8.28125 4.140625 15.453124-30.910156 8.28125zm0 0"/><path d="m360.710938 97.074219 27.710937-16 8 13.855469-27.710937 16zm0 0"/><path d="m336.164062 68.523438 22.632813-22.632813 11.316406 11.3125-22.632812 22.632813zm0 0"/><path d="m305.074219 47.289062 16-27.710937 13.855469 7.996094-15.996094 27.714843zm0 0"/><path d="m269.550781 34.835938 8.285157-30.910157 15.453124 4.140625-8.28125 30.910156zm0 0"/></g></svg>