<?xml version="1.0" encoding="UTF-8"?>
<svg xmlns="http://www.w3.org/2000/svg" xmlns:xlink="http://www.w3.org/1999/xlink" width="70pt" height="70pt" viewBox="0 0 70 70" version="1.1">
<g id="surface1">
<path style=" stroke:none;fill-rule:nonzero;fill:rgb(90.196078%,90.588235%,90.980392%);fill-opacity:1;" d="M 22.796875 23.121094 L 22.796875 32.527344 L 19.269531 32.527344 L 19.269531 23.121094 Z M 22.796875 23.121094 "/>
<path style=" stroke:none;fill-rule:nonzero;fill:rgb(90.196078%,90.588235%,90.980392%);fill-opacity:1;" d="M 25.148438 18.417969 L 25.148438 23.121094 L 21.621094 23.121094 L 21.621094 13.714844 L 25.148438 13.714844 Z M 25.148438 18.417969 "/>
<path style=" stroke:none;fill-rule:nonzero;fill:rgb(90.196078%,90.588235%,90.980392%);fill-opacity:1;" d="M 55.714844 4.308594 L 55.714844 13.714844 L 52.191406 13.714844 L 52.191406 4.308594 Z M 55.714844 4.308594 "/>
<path style=" stroke:none;fill-rule:nonzero;fill:rgb(0%,80%,70.196078%);fill-opacity:1;" d="M 19.269531 23.121094 L 19.269531 32.527344 L 16.917969 32.527344 C 14.324219 32.527344 12.21875 30.421875 12.21875 27.824219 C 12.21875 25.226562 14.324219 23.121094 16.917969 23.121094 Z M 19.269531 23.121094 "/>
<path style=" stroke:none;fill-rule:nonzero;fill:rgb(100%,59.607843%,6.666667%);fill-opacity:1;" d="M 61.394531 5.683594 C 62.742188 7.03125 63.144531 9.054688 62.417969 10.8125 C 61.6875 12.570312 59.972656 13.714844 58.066406 13.714844 L 55.714844 13.714844 L 55.714844 4.308594 L 58.066406 4.308594 C 59.316406 4.3125 60.511719 4.804688 61.394531 5.683594 Z M 61.394531 5.683594 "/>
<path style=" stroke:none;fill-rule:nonzero;fill:rgb(100%,38.431373%,26.27451%);fill-opacity:1;" d="M 21.621094 13.714844 L 21.621094 23.121094 L 19.269531 23.121094 C 16.675781 23.121094 14.566406 21.015625 14.566406 18.417969 C 14.566406 15.820312 16.675781 13.714844 19.269531 13.714844 Z M 21.621094 13.714844 "/>
<path style=" stroke:none;fill-rule:nonzero;fill:rgb(0%,86.666667%,76.078431%);fill-opacity:1;" d="M 25.148438 23.121094 L 63.945312 23.121094 C 62.351562 24.132812 61.445312 25.941406 61.59375 27.824219 C 61.445312 29.707031 62.351562 31.515625 63.945312 32.527344 L 22.796875 32.527344 L 22.796875 23.121094 Z M 25.148438 23.121094 "/>
<path style=" stroke:none;fill-rule:nonzero;fill:rgb(100%,71.372549%,33.333333%);fill-opacity:1;" d="M 52.191406 9.011719 L 52.191406 13.714844 L 11.042969 13.714844 C 12.636719 12.703125 13.542969 10.894531 13.394531 9.011719 C 13.542969 7.128906 12.636719 5.320312 11.042969 4.308594 L 52.191406 4.308594 Z M 52.191406 9.011719 "/>
<path style=" stroke:none;fill-rule:nonzero;fill:rgb(100%,47.45098%,33.72549%);fill-opacity:1;" d="M 25.148438 18.417969 L 25.148438 13.714844 L 66.296875 13.714844 C 64.703125 14.726562 63.796875 16.535156 63.945312 18.417969 C 63.796875 20.300781 64.703125 22.109375 66.296875 23.121094 L 25.148438 23.121094 Z M 25.148438 18.417969 "/>
<path style=" stroke:none;fill-rule:nonzero;fill:rgb(23.921569%,60.392157%,88.627451%);fill-opacity:1;" d="M 15.652344 62.550781 L 6.808594 65.773438 L 1.179688 50.300781 L 10.019531 47.09375 Z M 15.652344 62.550781 "/>
<path style=" stroke:none;fill-rule:nonzero;fill:rgb(11.764706%,50.588235%,80.784314%);fill-opacity:1;" d="M 26.726562 58.613281 L 27.5 60.742188 L 16.449219 64.761719 L 15.652344 62.550781 L 10.019531 47.09375 L 9.21875 44.882812 L 20.257812 40.859375 L 22.046875 45.753906 Z M 26.726562 58.613281 "/>
<path style=" stroke:none;fill-rule:nonzero;fill:rgb(100%,85.490196%,66.666667%);fill-opacity:1;" d="M 52.191406 44.128906 L 63.535156 37.582031 C 64.625 36.949219 65.972656 36.953125 67.0625 37.582031 C 68.15625 38.210938 68.828125 39.378906 68.824219 40.636719 C 68.832031 41.898438 68.15625 43.066406 67.0625 43.695312 L 41.609375 58.390625 L 27.324219 58.390625 L 26.726562 58.613281 L 22.046875 45.753906 L 31.027344 40.753906 L 48.664062 40.753906 C 49.597656 40.753906 50.496094 41.128906 51.15625 41.789062 C 51.523438 42.152344 51.800781 42.59375 51.964844 43.082031 C 52.09375 43.417969 52.171875 43.773438 52.191406 44.128906 Z M 52.191406 44.128906 "/>
<path style=" stroke:none;fill-rule:nonzero;fill:rgb(0%,0%,0%);fill-opacity:1;" d="M 69.371094 38.285156 C 68.0625 36.050781 65.199219 35.285156 62.949219 36.566406 L 52.914062 42.355469 C 52.695312 41.835938 52.378906 41.363281 51.984375 40.957031 C 51.109375 40.074219 49.910156 39.578125 48.664062 39.578125 L 31.027344 39.578125 C 30.828125 39.578125 30.632812 39.632812 30.457031 39.726562 L 22.679688 44.054688 L 21.371094 40.453125 C 21.148438 39.84375 20.472656 39.527344 19.863281 39.75 L 8.8125 43.769531 C 8.519531 43.875 8.28125 44.09375 8.148438 44.378906 C 8.015625 44.660156 8 44.984375 8.105469 45.277344 L 8.507812 46.382812 L 0.777344 49.203125 C 0.164062 49.421875 -0.152344 50.097656 0.0703125 50.707031 L 5.707031 66.171875 C 5.8125 66.464844 6.03125 66.703125 6.3125 66.835938 C 6.59375 66.96875 6.917969 66.984375 7.210938 66.878906 L 14.945312 64.0625 L 15.347656 65.167969 C 15.570312 65.777344 16.246094 66.09375 16.855469 65.871094 L 27.90625 61.851562 C 28.515625 61.628906 28.832031 60.957031 28.613281 60.34375 L 28.324219 59.566406 L 41.609375 59.566406 C 41.816406 59.566406 42.019531 59.511719 42.195312 59.40625 L 67.648438 44.710938 C 69.113281 43.878906 70.011719 42.320312 70 40.636719 C 70 39.8125 69.78125 39 69.371094 38.285156 Z M 7.515625 64.269531 L 2.695312 51.003906 L 9.324219 48.59375 L 14.148438 61.851562 Z M 17.15625 63.261719 L 10.722656 45.574219 L 19.558594 42.359375 L 25.992188 60.035156 Z M 66.472656 42.675781 L 41.292969 57.214844 L 27.46875 57.214844 L 23.492188 46.292969 L 31.332031 41.929688 L 48.664062 41.929688 C 49.285156 41.929688 49.882812 42.179688 50.324219 42.621094 C 50.578125 42.875 50.769531 43.183594 50.878906 43.527344 C 50.972656 43.765625 51.019531 44.023438 51.015625 44.28125 C 51.015625 45.582031 49.960938 46.632812 48.664062 46.632812 L 35.730469 46.632812 L 35.730469 48.984375 L 48.664062 48.984375 C 51.035156 48.976562 53.03125 47.199219 53.308594 44.839844 L 64.117188 38.601562 C 64.84375 38.183594 65.738281 38.183594 66.46875 38.601562 C 67.195312 39.023438 67.644531 39.796875 67.644531 40.636719 C 67.652344 41.480469 67.203125 42.257812 66.472656 42.675781 Z M 66.472656 42.675781 "/>
<path style=" stroke:none;fill-rule:nonzero;fill:rgb(0%,0%,0%);fill-opacity:1;" d="M 10.503906 12.667969 C 10.019531 12.917969 9.769531 13.464844 9.898438 13.992188 C 10.027344 14.519531 10.5 14.890625 11.042969 14.890625 L 14.597656 14.890625 C 12.878906 17.113281 13.011719 20.25 14.910156 22.320312 C 12.230469 23.292969 10.636719 26.050781 11.132812 28.855469 C 11.628906 31.664062 14.070312 33.707031 16.917969 33.703125 L 63.945312 33.703125 C 64.484375 33.699219 64.949219 33.332031 65.078125 32.808594 C 65.207031 32.285156 64.964844 31.738281 64.488281 31.480469 C 63.296875 30.664062 62.636719 29.265625 62.769531 27.824219 C 62.667969 26.46875 63.238281 25.152344 64.289062 24.296875 L 66.296875 24.296875 C 66.835938 24.292969 67.300781 23.925781 67.429688 23.402344 C 67.558594 22.878906 67.316406 22.332031 66.839844 22.078125 C 65.648438 21.257812 64.988281 19.859375 65.121094 18.417969 C 64.992188 16.984375 65.640625 15.59375 66.824219 14.773438 C 67.320312 14.535156 67.582031 13.980469 67.457031 13.445312 C 67.328125 12.910156 66.847656 12.535156 66.296875 12.539062 L 62.738281 12.539062 C 63.519531 11.527344 63.941406 10.289062 63.945312 9.011719 C 63.941406 5.765625 61.3125 3.136719 58.066406 3.132812 L 11.042969 3.132812 C 10.503906 3.136719 10.039062 3.503906 9.910156 4.027344 C 9.78125 4.550781 10.023438 5.097656 10.5 5.355469 C 11.691406 6.171875 12.351562 7.570312 12.21875 9.011719 C 12.347656 10.453125 11.695312 11.851562 10.503906 12.667969 Z M 21.621094 31.351562 L 20.445312 31.351562 L 20.445312 24.296875 L 21.621094 24.296875 Z M 23.972656 21.945312 L 22.796875 21.945312 L 22.796875 14.890625 L 23.972656 14.890625 Z M 20.445312 21.945312 L 19.269531 21.945312 C 17.324219 21.945312 15.742188 20.367188 15.742188 18.417969 C 15.742188 16.46875 17.324219 14.890625 19.269531 14.890625 L 20.445312 14.890625 Z M 13.394531 27.824219 C 13.394531 25.875 14.972656 24.296875 16.917969 24.296875 L 18.09375 24.296875 L 18.09375 31.351562 L 16.917969 31.351562 C 14.972656 31.351562 13.394531 29.769531 13.394531 27.824219 Z M 61.265625 31.351562 L 23.972656 31.351562 L 23.972656 29 L 58.066406 29 L 58.066406 26.648438 L 23.972656 26.648438 L 23.972656 24.296875 L 61.265625 24.296875 C 60.136719 26.511719 60.136719 29.132812 61.265625 31.351562 Z M 63.617188 21.945312 L 26.324219 21.945312 L 26.324219 19.59375 L 60.417969 19.59375 L 60.417969 17.242188 L 26.324219 17.242188 L 26.324219 14.890625 L 63.617188 14.890625 C 63.039062 15.976562 62.746094 17.1875 62.769531 18.417969 C 62.746094 19.644531 63.039062 20.859375 63.617188 21.945312 Z M 53.363281 5.484375 L 54.539062 5.484375 L 54.539062 12.539062 L 53.363281 12.539062 Z M 61.59375 9.011719 C 61.59375 10.960938 60.015625 12.539062 58.066406 12.539062 L 56.890625 12.539062 L 56.890625 5.484375 L 58.066406 5.484375 C 60.015625 5.484375 61.59375 7.066406 61.59375 9.011719 Z M 13.722656 5.484375 L 51.015625 5.484375 L 51.015625 7.835938 L 16.917969 7.835938 L 16.917969 10.1875 L 51.015625 10.1875 L 51.015625 12.539062 L 13.722656 12.539062 C 14.300781 11.457031 14.59375 10.242188 14.566406 9.011719 C 14.59375 7.785156 14.300781 6.570312 13.722656 5.484375 Z M 13.722656 5.484375 "/>
</g>
</svg>
