<?xml version="1.0" encoding="UTF-8"?>
<svg xmlns="http://www.w3.org/2000/svg" xmlns:xlink="http://www.w3.org/1999/xlink" width="70pt" height="70pt" viewBox="0 0 70 70" version="1.1">
<g id="surface1">
<path style=" stroke:none;fill-rule:nonzero;fill:rgb(90.196078%,90.588235%,90.980392%);fill-opacity:1;" d="M 65.460938 26.238281 L 56.714844 26.238281 L 56.714844 6.558594 C 56.714844 5.351562 55.738281 4.375 54.53125 4.375 L 15.167969 4.375 C 13.960938 4.375 12.984375 5.351562 12.984375 6.558594 L 12.984375 26.238281 L 4.238281 26.238281 C 3.027344 26.238281 2.050781 27.21875 2.050781 28.425781 L 34.851562 43.734375 L 67.648438 28.425781 C 67.648438 27.21875 66.671875 26.238281 65.460938 26.238281 Z M 65.460938 26.238281 "/>
<path style=" stroke:none;fill-rule:nonzero;fill:rgb(100%,76.862745%,46.666667%);fill-opacity:1;" d="M 2.050781 28.425781 L 2.050781 63.414062 C 2.050781 64.621094 3.027344 65.597656 4.238281 65.597656 L 65.460938 65.597656 C 66.671875 65.597656 67.648438 64.621094 67.648438 63.414062 L 67.648438 28.425781 L 34.851562 43.734375 Z M 2.050781 28.425781 "/>
<path style=" stroke:none;fill-rule:nonzero;fill:rgb(24.313725%,23.921569%,25.882353%);fill-opacity:1;" d="M 69.835938 28.375 C 69.835938 28.347656 69.835938 28.320312 69.835938 28.292969 C 69.765625 25.929688 67.828125 24.050781 65.460938 24.054688 L 58.902344 24.054688 L 58.902344 6.558594 C 58.902344 4.144531 56.945312 2.1875 54.53125 2.1875 L 15.167969 2.1875 C 12.753906 2.1875 10.796875 4.144531 10.796875 6.558594 L 10.796875 24.054688 L 4.238281 24.054688 C 1.878906 24.058594 -0.0507812 25.933594 -0.125 28.292969 L -0.125 28.375 C -0.125 28.398438 -0.136719 28.410156 -0.136719 28.425781 L -0.136719 63.414062 C -0.136719 65.828125 1.820312 67.785156 4.238281 67.785156 L 65.460938 67.785156 C 67.878906 67.785156 69.835938 65.828125 69.835938 63.414062 L 69.835938 28.425781 C 69.835938 28.410156 69.835938 28.390625 69.835938 28.375 Z M 62.476562 28.425781 L 58.902344 30.09375 L 58.902344 28.425781 Z M 15.167969 6.558594 L 54.53125 6.558594 L 54.53125 32.144531 L 34.851562 41.328125 L 15.167969 32.144531 Z M 10.796875 30.09375 L 7.222656 28.425781 L 10.796875 28.425781 Z M 4.238281 63.414062 L 4.238281 31.859375 L 33.925781 45.714844 C 34.511719 45.988281 35.1875 45.988281 35.773438 45.714844 L 65.460938 31.859375 L 65.460938 63.414062 Z M 4.238281 63.414062 "/>
<path style=" stroke:none;fill-rule:nonzero;fill:rgb(24.313725%,23.921569%,25.882353%);fill-opacity:1;" d="M 23.917969 19.679688 L 45.78125 19.679688 C 46.992188 19.679688 47.96875 18.699219 47.96875 17.492188 C 47.96875 16.285156 46.992188 15.304688 45.78125 15.304688 L 23.917969 15.304688 C 22.707031 15.304688 21.730469 16.285156 21.730469 17.492188 C 21.730469 18.699219 22.707031 19.679688 23.917969 19.679688 Z M 23.917969 19.679688 "/>
<path style=" stroke:none;fill-rule:nonzero;fill:rgb(24.313725%,23.921569%,25.882353%);fill-opacity:1;" d="M 23.917969 28.425781 L 45.78125 28.425781 C 46.992188 28.425781 47.96875 27.449219 47.96875 26.238281 C 47.96875 25.03125 46.992188 24.054688 45.78125 24.054688 L 23.917969 24.054688 C 22.707031 24.054688 21.730469 25.03125 21.730469 26.238281 C 21.730469 27.449219 22.707031 28.425781 23.917969 28.425781 Z M 23.917969 28.425781 "/>
</g>
</svg>
